<?xml version="1.0" encoding="iso-8859-1"?>
<!-- Generator: Adobe Illustrator 19.1.0, SVG Export Plug-In . SVG Version: 6.00 Build 0)  -->
<svg version="1.1" id="Capa_1" xmlns="http://www.w3.org/2000/svg" xmlns:xlink="http://www.w3.org/1999/xlink" x="0px" y="0px"
	 viewBox="0 0 490.77 490.77" style="enable-background:new 0 0 490.77 490.77;" xml:space="preserve">
<g>
	<g>
		<path d="M413.5,375.829c-3.1-3.8-4.8-8.6-4.8-13.6v-22.4v-14.3v-27.8c-0.7-0.2-1.3-0.3-2-0.5c-3.8,4.7-7.7,9.6-12.1,15
			c-6.4,7.9-14.8,12.5-23.9,13.4v10v2.6l0,0v1.7v24.5h-306v-28.8v-10.1v-156.3c0,0,0-0.1,0.1-0.1h170.6c-1.8-2.8-3.6-5.6-5.4-8.4
			c-5.9-9.1-7.5-19.9-4.4-29.5v-0.1H64.8c-21,0-38.1,17-38.1,38.1v156.3v8.3v28c0,4.9-1.7,9.7-4.8,13.6l-19.6,24.1
			c-1.5,1.8-2.3,4.1-2.3,6.4v11c0,14.3,11.6,25.8,25.8,25.8h383.5c14.3,0,25.8-11.6,25.8-25.8v-11c0-2.3-0.8-4.6-2.3-6.4
			L413.5,375.829z M258.9,405.229c0,7.2-5.9,13.1-13.1,13.1h-56.2c-7.2,0-13.1-5.9-13.1-13.1v-2.9H259v2.9H258.9z"/>
		<circle cx="333.1" cy="156.329" r="10.7"/>
		<circle cx="401.4" cy="199.829" r="10.7"/>
		<path d="M488,203.729c-5.3-8.2-10.7-16.5-16.1-24.6c-1.3-1.9-1.2-3.1,0-4.9c5.3-8,10.5-16,15.7-24.1c6.1-9.5,2.9-18.9-7.7-22.8
			c-9-3.3-17.9-6.8-26.9-10.1c-1.9-0.7-2.6-1.8-2.7-3.8c-0.4-9.8-1-19.6-1.5-29.3c-0.5-10.4-8.7-16.3-18.8-13.6
			c-9.5,2.5-18.9,5-28.3,7.8c-2.2,0.6-3.3,0.1-4.6-1.5c-6-7.6-12.2-15.1-18.3-22.6c-6.7-8.2-16.7-8.3-23.4,0
			c-6,7.4-12.1,14.9-18,22.5c-1.6,2.1-3.1,2.4-5.5,1.8c-9.2-2.6-18.5-5-25.2-6.8c-12.9-3.1-20.5,2.2-21.2,12.7
			c-0.7,9.9-1.1,19.8-1.5,29.7c-0.1,2.1-0.8,3-2.7,3.8c-9.3,3.5-18.5,7-27.8,10.7c-9.6,3.8-12.6,13.2-7,21.9
			c5.3,8.2,10.7,16.5,16.1,24.6c1.2,1.8,1.2,3.1,0,4.9c-5.5,8.3-11,16.8-16.3,25.2c-5.1,8.2-1.9,17.7,7.1,21.1
			c9.3,3.6,18.7,7.2,28.1,10.7c2,0.7,2.6,1.7,2.7,3.8c0.4,9.5,1.5,18.9,1.4,28.4c-0.1,9.7,8.4,18.1,19.8,14.5
			c9.1-2.9,18.5-5.1,27.7-7.7c1.9-0.5,2.9-0.2,4.2,1.3c6.1,7.7,12.3,15.3,18.5,22.9c6.8,8.3,16.6,8.3,23.4,0
			c6.2-7.6,12.3-15.2,18.4-22.9c1.2-1.5,2.2-2,4.1-1.4c9.6,2.7,19.1,5.2,28.7,7.7c9.9,2.6,18.1-3.4,18.6-13.5
			c0.5-9.9,1.1-19.8,1.5-29.7c0.1-2.3,1.1-3.2,3-3.9c9.1-3.4,18.1-6.9,27.1-10.4C490.5,221.929,493.6,212.429,488,203.729z
			 M307.3,156.329c0-14.3,11.6-25.9,25.9-25.9s25.9,11.6,25.9,25.9c0,14.3-11.6,25.9-25.9,25.9
			C318.9,182.129,307.3,170.629,307.3,156.329z M338.1,223.029c-2.2,2.6-6.2,3.1-8.9,0.8c-2.6-2.2-3.1-6.2-0.8-8.9l67.9-81.8
			c2.2-2.6,6.2-3.1,8.9-0.8c2.6,2.2,3.1,6.2,0.8,8.9L338.1,223.029z M401.4,225.729c-14.3,0-25.9-11.6-25.9-25.9
			c0-14.3,11.6-25.9,25.9-25.9s25.9,11.6,25.9,25.9C427.2,214.129,415.6,225.729,401.4,225.729z"/>
	</g>
</g>
<g>
</g>
<g>
</g>
<g>
</g>
<g>
</g>
<g>
</g>
<g>
</g>
<g>
</g>
<g>
</g>
<g>
</g>
<g>
</g>
<g>
</g>
<g>
</g>
<g>
</g>
<g>
</g>
<g>
</g>
</svg>
