<?xml version="1.0" encoding="iso-8859-1"?>
<!-- Generator: Adobe Illustrator 19.0.0, SVG Export Plug-In . SVG Version: 6.00 Build 0)  -->
<svg version="1.1" id="Layer_1" xmlns="http://www.w3.org/2000/svg" xmlns:xlink="http://www.w3.org/1999/xlink" x="0px" y="0px"
	 viewBox="0 0 330 330" style="enable-background:new 0 0 330 330;" xml:space="preserve">
<g id="XMLID_443_">
	<path id="XMLID_444_" d="M315,295h-5V20c0-8.284-6.716-15-15-15c-8.284,0-15,6.716-15,15v5.001L50,25.012V20
		c0-8.284-6.716-15-15-15s-15,6.716-15,15v20.012v0.001c0,0,0,0.001,0,0.001v179.972c0,0.004,0,0.009,0,0.013s0,0.009,0,0.013
		L20.001,295H15c-8.284,0-15,6.716-15,15s6.716,15,15,15h20.001H295h20c8.284,0,15-6.716,15-15S323.284,295,315,295z M280,295
		H50.001v-60h24.035c5.195,8.958,14.884,15,25.964,15s20.769-6.042,25.964-15h48.072c5.195,8.958,14.884,15,25.964,15
		c5.463,0,10.584-1.475,15-4.036c4.416,2.562,9.537,4.036,15,4.036c11.08,0,20.769-6.042,25.964-15H280V295z M280,205h-24.036
		c-5.195-8.958-14.884-15-25.964-15c-5.463,0-10.584,1.475-15,4.036c-4.416-2.562-9.537-4.036-15-4.036
		c-11.08,0-20.769,6.042-25.964,15h-48.072c-5.195-8.958-14.884-15-25.964-15s-20.769,6.042-25.964,15H50v-60h24.036
		c5.195,8.958,14.884,15,25.964,15c5.463,0,10.584-1.475,15-4.036c4.416,2.562,9.537,4.036,15,4.036c11.08,0,20.769-6.042,25.964-15
		h48.072c5.195,8.958,14.884,15,25.964,15c11.08,0,20.769-6.042,25.964-15H280V205z M280,115h-24.036
		c-5.195-8.958-14.884-15-25.964-15c-11.08,0-20.769,6.042-25.964,15h-48.072c-5.195-8.958-14.884-15-25.964-15
		c-5.463,0-10.584,1.475-15,4.036c-4.416-2.562-9.537-4.036-15-4.036c-11.08,0-20.769,6.042-25.964,15H50V55.012l230-0.011V115z"/>
</g>
<g>
</g>
<g>
</g>
<g>
</g>
<g>
</g>
<g>
</g>
<g>
</g>
<g>
</g>
<g>
</g>
<g>
</g>
<g>
</g>
<g>
</g>
<g>
</g>
<g>
</g>
<g>
</g>
<g>
</g>
</svg>
