<?xml version="1.0" encoding="iso-8859-1"?>
<!-- Generator: Adobe Illustrator 19.0.0, SVG Export Plug-In . SVG Version: 6.00 Build 0)  -->
<svg version="1.1" id="Layer_1" xmlns="http://www.w3.org/2000/svg" xmlns:xlink="http://www.w3.org/1999/xlink" x="0px" y="0px"
	 viewBox="0 0 330 330" style="enable-background:new 0 0 330 330;" xml:space="preserve">
<g id="XMLID_238_">
	<path id="XMLID_239_" d="M90,330h200c8.284,0,15-6.716,15-15V15c0-8.284-6.716-15-15-15H90C54.158,0,25,29.159,25,65v200
		C25,300.841,54.158,330,90,330z M165,175c-24.852,0-45-20.148-45-45c0-24.854,20.148-45,45-45c24.852,0,45,20.146,45,45
		C210,154.852,189.852,175,165,175c38.66,0,70,31.338,70,70H95C95,206.338,126.34,175,165,175z"/>
</g>
<g>
</g>
<g>
</g>
<g>
</g>
<g>
</g>
<g>
</g>
<g>
</g>
<g>
</g>
<g>
</g>
<g>
</g>
<g>
</g>
<g>
</g>
<g>
</g>
<g>
</g>
<g>
</g>
<g>
</g>
</svg>
