<?xml version="1.0" encoding="iso-8859-1"?>
<!-- Generator: Adobe Illustrator 19.0.0, SVG Export Plug-In . SVG Version: 6.00 Build 0)  -->
<svg version="1.1" id="Layer_1" xmlns="http://www.w3.org/2000/svg" xmlns:xlink="http://www.w3.org/1999/xlink" x="0px" y="0px"
	 viewBox="0 0 330 330" style="enable-background:new 0 0 330 330;" xml:space="preserve">
<g id="XMLID_6_">
	<path id="XMLID_7_" d="M327.862,222.287l-46.371-77.293h33.508c8.284,0,15-6.716,15-15c0-8.284-6.716-15-15-15H180V39.996
		c0-8.284-6.716-15-15-15c-8.284,0-15,6.716-15,15v74.998H15c-8.284,0-15,6.716-15,15c0,8.284,6.716,15,15,15h33.508L2.137,222.287
		l0.006,0.021C0.791,224.56,0,227.186,0,230.004c0,41.355,33.644,75,75,75s75-33.645,75-75c0-2.817-0.791-5.444-2.143-7.696
		l0.006-0.021l-46.371-77.293h127.016l-46.371,77.293l0.005,0.021c-1.351,2.252-2.142,4.879-2.142,7.696c0,41.355,33.644,75,75,75
		c41.354,0,75-33.645,75-75c0-2.817-0.791-5.444-2.143-7.696L327.862,222.287z M108.508,215.004H41.492L75,159.151L108.508,215.004z
		 M221.491,215.004L255,159.151l33.508,55.853H221.491z"/>
</g>
<g>
</g>
<g>
</g>
<g>
</g>
<g>
</g>
<g>
</g>
<g>
</g>
<g>
</g>
<g>
</g>
<g>
</g>
<g>
</g>
<g>
</g>
<g>
</g>
<g>
</g>
<g>
</g>
<g>
</g>
</svg>
