<?xml version="1.0" encoding="iso-8859-1"?>
<!-- Generator: Adobe Illustrator 19.0.0, SVG Export Plug-In . SVG Version: 6.00 Build 0)  -->
<svg version="1.1" id="Layer_1" xmlns="http://www.w3.org/2000/svg" xmlns:xlink="http://www.w3.org/1999/xlink" x="0px" y="0px"
	 viewBox="0 0 330 330" style="enable-background:new 0 0 330 330;" xml:space="preserve">
<g id="XMLID_11_">
	<rect id="XMLID_12_" x="144" width="42" height="330"/>
	<path id="XMLID_13_" d="M0,165v150c0,8.284,6.716,15,15,15h27V150H15C6.716,150,0,156.716,0,165z"/>
	<path id="XMLID_14_" d="M72,75.301V330h3h39V75H75C73.973,75,72.969,75.104,72,75.301z"/>
	<path id="XMLID_15_" d="M315,150h-27v180h27c8.284,0,15-6.716,15-15V165C330,156.716,323.284,150,315,150z"/>
	<path id="XMLID_16_" d="M216,75v255h39h3V75.301c-0.969-0.197-1.973-0.301-3-0.301H216z"/>
</g>
<g>
</g>
<g>
</g>
<g>
</g>
<g>
</g>
<g>
</g>
<g>
</g>
<g>
</g>
<g>
</g>
<g>
</g>
<g>
</g>
<g>
</g>
<g>
</g>
<g>
</g>
<g>
</g>
<g>
</g>
</svg>
