<?xml version="1.0" encoding="iso-8859-1"?>
<!-- Generator: Adobe Illustrator 19.0.0, SVG Export Plug-In . SVG Version: 6.00 Build 0)  -->
<svg version="1.1" id="Layer_1" xmlns="http://www.w3.org/2000/svg" xmlns:xlink="http://www.w3.org/1999/xlink" x="0px" y="0px"
	 viewBox="0 0 330 330" style="enable-background:new 0 0 330 330;" xml:space="preserve">
<g id="XMLID_16_">
	<path id="XMLID_17_" d="M315,42.857h-57.143H72.143H15c-8.285,0-15,6.716-15,15V115v100v57.143c0,8.284,6.715,15,15,15h57.143
		h0.021h185.694H315c8.284,0,15-6.716,15-15V215V115V57.857C330,49.573,323.284,42.857,315,42.857z M300,201.579
		c-27.762,5.895-49.668,27.801-55.564,55.564H85.568C79.673,229.38,57.762,207.477,30,201.581v-73.16
		c27.762-5.896,49.668-27.801,55.564-55.563h158.872c5.896,27.762,27.802,49.668,55.564,55.563V201.579z"/>
	<path id="XMLID_20_" d="M165,121.88c-30.486,0-54.365,18.94-54.365,43.12c0,24.178,23.879,43.117,54.365,43.117
		s54.367-18.939,54.367-43.117C219.367,140.82,195.486,121.88,165,121.88z"/>
</g>
<g>
</g>
<g>
</g>
<g>
</g>
<g>
</g>
<g>
</g>
<g>
</g>
<g>
</g>
<g>
</g>
<g>
</g>
<g>
</g>
<g>
</g>
<g>
</g>
<g>
</g>
<g>
</g>
<g>
</g>
</svg>
