<?xml version="1.0" encoding="iso-8859-1"?>
<!-- Generator: Adobe Illustrator 19.0.0, SVG Export Plug-In . SVG Version: 6.00 Build 0)  -->
<svg version="1.1" id="Layer_1" xmlns="http://www.w3.org/2000/svg" xmlns:xlink="http://www.w3.org/1999/xlink" x="0px" y="0px"
	 viewBox="0 0 330 330" style="enable-background:new 0 0 330 330;" xml:space="preserve">
<g id="XMLID_242_">
	<path id="XMLID_243_" d="M90,330h200c8.284,0,15-6.716,15-15V15c0-8.284-6.716-15-15-15H90C54.158,0,25,29.159,25,65v200
		C25,300.841,54.158,330,90,330z M175,180h-20c-24.813,0-45-20.187-45-45c0-23.123,17.532-42.219,40-44.715V85
		c0-8.284,6.716-15,15-15c8.284,0,15,6.716,15,15v5h25c8.284,0,15,6.716,15,15s-6.716,15-15,15h-50c-8.271,0-15,6.729-15,15
		s6.729,15,15,15h20c24.813,0,45,20.187,45,45c0,23.123-17.532,42.219-40,44.715V245c0,8.284-6.716,15-15,15
		c-8.284,0-15-6.716-15-15v-5h-25c-8.284,0-15-6.716-15-15s6.716-15,15-15h50c8.271,0,15-6.729,15-15S183.271,180,175,180z"/>
</g>
<g>
</g>
<g>
</g>
<g>
</g>
<g>
</g>
<g>
</g>
<g>
</g>
<g>
</g>
<g>
</g>
<g>
</g>
<g>
</g>
<g>
</g>
<g>
</g>
<g>
</g>
<g>
</g>
<g>
</g>
</svg>
