<?xml version="1.0" encoding="iso-8859-1"?>
<!-- Generator: Adobe Illustrator 19.0.0, SVG Export Plug-In . SVG Version: 6.00 Build 0)  -->
<svg version="1.1" id="Layer_1" xmlns="http://www.w3.org/2000/svg" xmlns:xlink="http://www.w3.org/1999/xlink" x="0px" y="0px"
	 viewBox="0 0 330 330" style="enable-background:new 0 0 330 330;" xml:space="preserve">
<g id="XMLID_448_">
	<path id="XMLID_449_" d="M120,160v-15c0-8.284,6.716-15,15-15h60c8.284,0,15,6.716,15,15v15h90h30V75c0-8.284-6.716-15-15-15h-85
		V15c0-8.284-6.716-15-15-15H115c-8.284,0-15,6.716-15,15v45H15C6.716,60,0,66.716,0,75v85h30H120z M130,30h70v30h-70V30z"/>
	<path id="XMLID_452_" d="M15,330h300c8.284,0,15-6.716,15-15V190h-30h-90v15c0,8.284-6.716,15-15,15h-60c-8.284,0-15-6.716-15-15
		v-15H30H0v125C0,323.284,6.716,330,15,330z"/>
	<rect id="XMLID_453_" x="150" y="160" width="30" height="30"/>
</g>
<g>
</g>
<g>
</g>
<g>
</g>
<g>
</g>
<g>
</g>
<g>
</g>
<g>
</g>
<g>
</g>
<g>
</g>
<g>
</g>
<g>
</g>
<g>
</g>
<g>
</g>
<g>
</g>
<g>
</g>
</svg>
