<?xml version="1.0" encoding="iso-8859-1"?>
<!-- Generator: Adobe Illustrator 19.0.0, SVG Export Plug-In . SVG Version: 6.00 Build 0)  -->
<svg version="1.1" id="Layer_1" xmlns="http://www.w3.org/2000/svg" xmlns:xlink="http://www.w3.org/1999/xlink" x="0px" y="0px"
	 viewBox="0 0 330 330" style="enable-background:new 0 0 330 330;" xml:space="preserve">
<g id="XMLID_2_">
	<path id="XMLID_4_" d="M100.308,216.712c-14.106-9.59-26.142-22.313-34.917-37.514c-5.391-9.336-9.386-19.214-11.965-29.385
		c-3.018-11.895-4.087-24.19-3.162-36.493C19.941,134.049,0,168.896,0,208.318c0,63.411,51.589,115,115,115
		c17.908,0,34.873-4.117,50-11.451c-11.086-5.375-21.182-12.481-29.939-20.962C115.338,271.81,102.412,245.739,100.308,216.712z"/>
	<path id="XMLID_5_" d="M115,123.318c-12.303,0-23.992,2.648-34.561,7.372c1.236,11.663,4.892,23.046,10.932,33.508
		c3.406,5.898,7.479,11.29,12.085,16.111c5.3-21.099,16.443-39.899,31.604-54.578C128.624,124.167,121.91,123.318,115,123.318z"/>
	<path id="XMLID_6_" d="M199.524,199.358c-2.578-24.493-15.606-45.907-34.524-59.719c-18.912,13.807-31.936,35.21-34.521,59.691
		c10.736,4.783,22.5,7.384,34.599,7.384C176.932,206.715,188.682,204.186,199.524,199.358z"/>
	<path id="XMLID_7_" d="M249.462,130.645c-10.542-4.695-22.196-7.327-34.462-7.327c-6.91,0-13.624,0.849-20.061,2.413
		c15.157,14.676,26.299,33.471,31.602,54.564C239.578,166.585,247.491,149.024,249.462,130.645z"/>
	<path id="XMLID_8_" d="M115,93.318c17.908,0,34.873,4.117,50,11.45c15.127-7.333,32.092-11.45,50-11.45
		c10.924,0,21.496,1.531,31.516,4.391c11.953,3.41,23.115,8.715,33.147,15.561c-1.207-16.782-6.124-33.549-15.086-49.071
		c-20.483-35.477-58.681-57.517-99.686-57.517c-20.079,0-39.93,5.334-57.407,15.425C80.881,37.464,61.853,62.263,53.902,91.935
		c-1.896,7.079-3.102,14.233-3.639,21.386c10.044-6.866,21.225-12.185,33.199-15.605C93.488,94.853,104.068,93.318,115,93.318z"/>
	<path id="XMLID_9_" d="M165.077,236.715c-10.831,0-21.46-1.552-31.625-4.468c5.343,18.176,16.601,33.837,31.548,44.749
		c14.939-10.906,26.192-26.556,31.539-44.719C186.328,235.197,175.736,236.715,165.077,236.715z"/>
	<path id="XMLID_10_" d="M279.662,113.27c0.884,12.294-0.23,24.595-3.202,36.425c-6.677,26.571-22.753,50.751-46.771,67.074
		c-2.116,29.004-15.04,55.054-34.749,74.137c-8.758,8.48-18.854,15.587-29.939,20.962c15.127,7.334,32.092,11.451,50,11.451
		c63.411,0,115-51.589,115-115C330,168.864,310.025,133.991,279.662,113.27z"/>
</g>
<g>
</g>
<g>
</g>
<g>
</g>
<g>
</g>
<g>
</g>
<g>
</g>
<g>
</g>
<g>
</g>
<g>
</g>
<g>
</g>
<g>
</g>
<g>
</g>
<g>
</g>
<g>
</g>
<g>
</g>
</svg>
