<?xml version="1.0" encoding="iso-8859-1"?>
<!-- Generator: Adobe Illustrator 19.0.0, SVG Export Plug-In . SVG Version: 6.00 Build 0)  -->
<svg version="1.1" id="Layer_1" xmlns="http://www.w3.org/2000/svg" xmlns:xlink="http://www.w3.org/1999/xlink" x="0px" y="0px"
	 viewBox="0 0 330.001 330.001" style="enable-background:new 0 0 330.001 330.001;" xml:space="preserve">
<g id="XMLID_23_">
	<polygon id="XMLID_24_" points="72,330.001 114,330.001 114,100.137 72,54.637 	"/>
	<polygon id="XMLID_25_" points="144,330.001 186,330.001 186,93.363 144,121.086 	"/>
	<path id="XMLID_26_" d="M9.539,1.031C3.786,3.28,0,8.825,0,15.001v300c0,8.284,6.716,15,15,15h27V22.137L26.022,4.827
		C21.832,0.288,15.29-1.219,9.539,1.031z"/>
	<polygon id="XMLID_27_" points="216,330.001 258,330.001 258,151.302 216,105.986 	"/>
	<path id="XMLID_28_" d="M288,183.67v146.331h27c8.284,0,15-6.716,15-15v-80.133c0-3.781-1.428-7.423-3.998-10.197L288,183.67z"/>
</g>
<g>
</g>
<g>
</g>
<g>
</g>
<g>
</g>
<g>
</g>
<g>
</g>
<g>
</g>
<g>
</g>
<g>
</g>
<g>
</g>
<g>
</g>
<g>
</g>
<g>
</g>
<g>
</g>
<g>
</g>
</svg>
