<?xml version="1.0" encoding="iso-8859-1"?>
<!-- Generator: Adobe Illustrator 19.0.0, SVG Export Plug-In . SVG Version: 6.00 Build 0)  -->
<svg version="1.1" id="Layer_1" xmlns="http://www.w3.org/2000/svg" xmlns:xlink="http://www.w3.org/1999/xlink" x="0px" y="0px"
	 viewBox="0 0 395.246 395.246" style="enable-background:new 0 0 395.246 395.246;" xml:space="preserve">
<g id="XMLID_12_">
	<path id="XMLID_13_" d="M77.623,101.313c24.813,0,45-20.188,45-45c0-24.813-20.187-45-45-45s-45,20.187-45,45
		C32.623,81.125,52.81,101.313,77.623,101.313z"/>
	<path id="XMLID_14_" d="M152.623,56.313c0,24.813,20.186,45,45,45s45-20.188,45-45c0-24.813-20.187-45-45-45
		S152.623,31.499,152.623,56.313z"/>
	<path id="XMLID_15_" d="M317.623,11.313c-24.813,0-45,20.187-45,45c0,24.813,20.187,45,45,45c24.814,0,45-20.188,45-45
		C362.623,31.499,342.436,11.313,317.623,11.313z"/>
	<path id="XMLID_16_" d="M317.623,131.313c-24.143,0-45.742,11.081-59.99,28.421c-3.886-4.745-8.329-9.041-13.236-12.751
		c-13.56-10.251-29.734-15.67-46.773-15.67h-0.001c-17.037,0-33.212,5.418-46.772,15.67c-4.907,3.709-9.351,8.006-13.236,12.75
		c-14.248-17.34-35.848-28.42-59.99-28.42c-37.67,0-69.146,26.975-76.154,62.621h392.309
		C386.768,158.288,355.293,131.313,317.623,131.313z"/>
	<path id="XMLID_17_" d="M0,288.934c0,8.285,6.716,15,15,15h47.623v65c0,8.285,6.716,15,15,15s15-6.715,15-15v-65h210v65
		c0,8.285,6.716,15,15,15c8.284,0,15-6.715,15-15v-65h47.623c8.284,0,15-6.715,15-15v-65H0V288.934z"/>
</g>
<g>
</g>
<g>
</g>
<g>
</g>
<g>
</g>
<g>
</g>
<g>
</g>
<g>
</g>
<g>
</g>
<g>
</g>
<g>
</g>
<g>
</g>
<g>
</g>
<g>
</g>
<g>
</g>
<g>
</g>
</svg>
