<?xml version="1.0" encoding="iso-8859-1"?>
<!-- Generator: Adobe Illustrator 19.0.0, SVG Export Plug-In . SVG Version: 6.00 Build 0)  -->
<svg version="1.1" id="Layer_1" xmlns="http://www.w3.org/2000/svg" xmlns:xlink="http://www.w3.org/1999/xlink" x="0px" y="0px"
	 viewBox="0 0 270 270" style="enable-background:new 0 0 270 270;" xml:space="preserve">
<g id="XMLID_232_">
	<path id="XMLID_233_" d="M0,229.251V250h120v-20.749c-13.159-20.163-35.803-32.544-60-32.544S13.159,209.088,0,229.251z"/>
	<path id="XMLID_235_" d="M120,52.544C106.84,32.381,84.196,20,60,20C35.807,20,13.162,32.369,0,52.526v133.848
		c17.17-12.553,38.138-19.667,60-19.667c21.864,0,42.83,7.128,60,19.683V52.544z"/>
	<path id="XMLID_236_" d="M270,52.544C256.84,32.381,234.197,20,210,20v95.352h-30V26.629c-12.076,5.589-22.556,14.496-30,25.897
		V186.39c17.17-12.555,38.136-19.683,60-19.683c21.862,0,42.831,7.115,60,19.667V52.544z"/>
	<path id="XMLID_237_" d="M150,229.233V250h120v-20.749c-13.159-20.163-35.803-32.544-60-32.544
		C185.807,196.707,163.16,209.076,150,229.233z"/>
</g>
<g>
</g>
<g>
</g>
<g>
</g>
<g>
</g>
<g>
</g>
<g>
</g>
<g>
</g>
<g>
</g>
<g>
</g>
<g>
</g>
<g>
</g>
<g>
</g>
<g>
</g>
<g>
</g>
<g>
</g>
</svg>
