<?xml version="1.0" encoding="iso-8859-1"?>
<!-- Generator: Adobe Illustrator 19.0.0, SVG Export Plug-In . SVG Version: 6.00 Build 0)  -->
<svg version="1.1" id="Layer_1" xmlns="http://www.w3.org/2000/svg" xmlns:xlink="http://www.w3.org/1999/xlink" x="0px" y="0px"
	 viewBox="0 0 330 330" style="enable-background:new 0 0 330 330;" xml:space="preserve">
<g id="XMLID_108_">
	<path id="XMLID_109_" d="M245.606,4.394c-5.857-5.858-15.355-5.858-21.213,0l-220,220C1.58,227.207,0,231.022,0,235v80
		c0,8.284,6.716,15,15,15h80c3.979,0,7.793-1.581,10.606-4.394l220-220c5.858-5.858,5.858-15.355,0-21.213L245.606,4.394z"/>
	<path id="XMLID_110_" d="M304.394,174.394l-80,79.999c-5.858,5.857-5.858,15.355,0,21.213c2.929,2.929,6.768,4.393,10.606,4.393
		s7.678-1.465,10.606-4.393l80-79.999c5.858-5.857,5.858-15.355,0-21.213C319.749,168.535,310.251,168.536,304.394,174.394z"/>
</g>
<g>
</g>
<g>
</g>
<g>
</g>
<g>
</g>
<g>
</g>
<g>
</g>
<g>
</g>
<g>
</g>
<g>
</g>
<g>
</g>
<g>
</g>
<g>
</g>
<g>
</g>
<g>
</g>
<g>
</g>
</svg>
