<?xml version="1.0" encoding="iso-8859-1"?>
<!-- Generator: Adobe Illustrator 19.0.0, SVG Export Plug-In . SVG Version: 6.00 Build 0)  -->
<svg version="1.1" id="Layer_1" xmlns="http://www.w3.org/2000/svg" xmlns:xlink="http://www.w3.org/1999/xlink" x="0px" y="0px"
	 viewBox="0 0 329.984 329.984" style="enable-background:new 0 0 329.984 329.984;" xml:space="preserve">
<g id="XMLID_106_">
	<path id="XMLID_107_" d="M255,179.983H150V74.984c0-8.284-6.716-15-15-15c-74.439,0-135,60.56-135,134.999
		c0,74.44,60.561,135.001,135,135.001c74.439,0,135-60.561,135-135.001C270,186.699,263.284,179.983,255,179.983z"/>
	<path id="XMLID_108_" d="M314.984,149.984c8.284,0,15-6.716,15-15C329.984,60.554,269.431,0,195,0c-8.284,0-15,6.716-15,15v119.984
		c0,8.284,6.716,15,15,15H314.984z"/>
</g>
<g>
</g>
<g>
</g>
<g>
</g>
<g>
</g>
<g>
</g>
<g>
</g>
<g>
</g>
<g>
</g>
<g>
</g>
<g>
</g>
<g>
</g>
<g>
</g>
<g>
</g>
<g>
</g>
<g>
</g>
</svg>
