<?xml version="1.0" encoding="iso-8859-1"?>
<!-- Generator: Adobe Illustrator 19.0.0, SVG Export Plug-In . SVG Version: 6.00 Build 0)  -->
<svg version="1.1" id="Layer_1" xmlns="http://www.w3.org/2000/svg" xmlns:xlink="http://www.w3.org/1999/xlink" x="0px" y="0px"
	 viewBox="0 0 330 330" style="enable-background:new 0 0 330 330;" xml:space="preserve">
<g id="XMLID_91_">
	<path id="XMLID_92_" d="M254.998,179.993H195.01c-8.284,0-15,6.716-15,15c0,24.815-20.188,45.004-45.004,45.004
		c-24.815,0-45.002-20.189-45.002-45.004c0-24.815,20.188-45.003,45.002-45.003c8.285,0,15-6.716,15-15V74.986
		c0-8.284-6.715-15-15-15C60.563,59.986,0,120.55,0,194.993C0,269.436,60.563,330,135.006,330
		c74.443,0,135.008-60.564,135.008-135.007C270.014,186.709,263.282,179.993,254.998,179.993z"/>
	<path id="XMLID_93_" d="M195.01,0c-8.284,0-15,6.716-15,15v59.986c0,8.284,6.716,15,15,15c24.815,0,45.004,20.188,45.004,45.004
		c0,8.284,6.716,15,15,15H315c8.284,0,15-6.716,15-15C330,60.556,269.443,0,195.01,0z"/>
</g>
<g>
</g>
<g>
</g>
<g>
</g>
<g>
</g>
<g>
</g>
<g>
</g>
<g>
</g>
<g>
</g>
<g>
</g>
<g>
</g>
<g>
</g>
<g>
</g>
<g>
</g>
<g>
</g>
<g>
</g>
</svg>
