<?xml version="1.0" encoding="iso-8859-1"?>
<!-- Generator: Adobe Illustrator 19.0.0, SVG Export Plug-In . SVG Version: 6.00 Build 0)  -->
<svg version="1.1" id="Layer_1" xmlns="http://www.w3.org/2000/svg" xmlns:xlink="http://www.w3.org/1999/xlink" x="0px" y="0px"
	 viewBox="0 0 330.002 330.002" style="enable-background:new 0 0 330.002 330.002;" xml:space="preserve">
<g id="XMLID_103_">
	<path id="XMLID_104_" d="M125.542,64.33l-9.935-9.935c-5.858-5.859-15.355-5.858-21.212,0l-50.001,50
		c-5.857,5.858-5.857,15.354,0.001,21.213L113.788,195L4.393,304.393c-5.857,5.858-5.857,15.355,0.001,21.214
		c2.929,2.93,6.767,4.394,10.606,4.395c3.839-0.001,7.678-1.466,10.606-4.395l109.394-109.393l69.393,69.393
		c2.93,2.93,6.768,4.395,10.607,4.395c3.839,0,7.678-1.465,10.605-4.394l50.001-50c5.858-5.858,5.858-15.355-0.001-21.213
		L125.542,64.33z"/>
	<path id="XMLID_105_" d="M325.607,84.394l-80-80c-5.858-5.859-15.356-5.858-21.213,0l-58.181,58.18l101.213,101.213l58.181-58.18
		C331.466,99.749,331.466,90.253,325.607,84.394z"/>
</g>
<g>
</g>
<g>
</g>
<g>
</g>
<g>
</g>
<g>
</g>
<g>
</g>
<g>
</g>
<g>
</g>
<g>
</g>
<g>
</g>
<g>
</g>
<g>
</g>
<g>
</g>
<g>
</g>
<g>
</g>
</svg>
