<?xml version="1.0" encoding="iso-8859-1"?>
<!-- Generator: Adobe Illustrator 19.0.0, SVG Export Plug-In . SVG Version: 6.00 Build 0)  -->
<svg version="1.1" id="Layer_1" xmlns="http://www.w3.org/2000/svg" xmlns:xlink="http://www.w3.org/1999/xlink" x="0px" y="0px"
	 viewBox="0 0 330 330" style="enable-background:new 0 0 330 330;" xml:space="preserve">
<g id="XMLID_445_">
	<path id="XMLID_446_" d="M153.477,324.603c2.85,3.42,7.072,5.397,11.523,5.397c4.451,0,8.674-1.978,11.523-5.397l50-60
		c2.613-3.136,3.836-7.202,3.385-11.259L211.76,90h-93.52l-18.148,163.344c-0.451,4.057,0.771,8.123,3.385,11.259L153.477,324.603z"
		/>
	<path id="XMLID_447_" d="M117.293,60h95.414l7.089-42.534c0.726-4.349-0.501-8.797-3.351-12.162C213.596,1.94,209.409,0,205,0h-80
		c-4.409,0-8.596,1.94-11.445,5.304c-2.85,3.365-4.076,7.813-3.351,12.162L117.293,60z"/>
</g>
<g>
</g>
<g>
</g>
<g>
</g>
<g>
</g>
<g>
</g>
<g>
</g>
<g>
</g>
<g>
</g>
<g>
</g>
<g>
</g>
<g>
</g>
<g>
</g>
<g>
</g>
<g>
</g>
<g>
</g>
</svg>
