<?xml version="1.0" encoding="iso-8859-1"?>
<!-- Generator: Adobe Illustrator 19.0.0, SVG Export Plug-In . SVG Version: 6.00 Build 0)  -->
<svg version="1.1" id="Layer_1" xmlns="http://www.w3.org/2000/svg" xmlns:xlink="http://www.w3.org/1999/xlink" x="0px" y="0px"
	 viewBox="0 0 512 512" style="enable-background:new 0 0 512 512;" xml:space="preserve">
<path style="fill:#ECF0F1;" d="M44.415,283.978h412.677c24.53,0,44.415,24.104,44.415,53.837l0,0
	c0,16.622-11.117,30.098-24.831,30.098H173.463C135.221,367.912,44.415,330.334,44.415,283.978L44.415,283.978z"/>
<path style="fill:#FFA800;" d="M158.43,283.978l-53.743-103.306c-11.695-22.481-34.93-36.585-60.272-36.585l0,0l31.94,139.89h82.075
	V283.978z"/>
<g>
	<path style="fill:#231F20;" d="M457.093,273.486H164.799l-50.803-97.656c-13.552-26.051-40.214-42.235-69.58-42.235
		c-3.193,0-6.212,1.454-8.202,3.951c-1.99,2.496-2.736,5.763-2.026,8.876l29.011,127.063H44.415
		c-5.795,0-10.492,4.698-10.492,10.492c0,10.623,3.752,21.239,10.95,31.475H10.492C4.697,315.453,0,320.152,0,325.945
		s4.697,10.492,10.492,10.492h54.682c7.018,5.605,15.149,10.99,24.349,16.074c27.584,15.245,62.101,25.893,83.941,25.893h303.213
		c19.477,0,35.323-18.207,35.323-40.59C512,302.343,487.368,273.486,457.093,273.486z M57.938,156.176
		c15.94,3.833,29.65,14.359,37.443,29.338l45.765,87.972H84.721L57.938,156.176z M476.677,357.421H173.464
		c-17.706,0-45.349-8.325-69.489-20.984h161.468c5.795,0,10.492-4.698,10.492-10.492s-4.697-10.492-10.492-10.492H72.897
		c-7.372-6.67-12.988-13.762-15.859-20.984h400.056c18.706,0,33.923,19.444,33.923,43.345
		C491.016,348.442,484.451,357.421,476.677,357.421z"/>
	<path style="fill:#231F20;" d="M434.707,315.45c-2.759,0-5.466,1.122-7.418,3.074c-1.951,1.953-3.074,4.658-3.074,7.418
		c0,2.77,1.123,5.466,3.074,7.417c1.951,1.962,4.658,3.075,7.418,3.075c2.77,0,5.466-1.113,7.418-3.075
		c1.962-1.95,3.074-4.657,3.074-7.417c0-2.759-1.112-5.456-3.074-7.418C440.173,316.572,437.477,315.45,434.707,315.45z"/>
	<path style="fill:#231F20;" d="M398.227,315.45c-5.802,0-10.492,4.699-10.492,10.492c0,5.801,4.69,10.492,10.492,10.492
		c5.791,0,10.492-4.691,10.492-10.492C408.719,320.15,404.018,315.45,398.227,315.45z"/>
	<path style="fill:#231F20;" d="M361.736,315.45c-5.791,0-10.492,4.699-10.492,10.492c0,5.801,4.7,10.492,10.492,10.492
		c5.791,0,10.492-4.691,10.492-10.492C372.228,320.15,367.528,315.45,361.736,315.45z"/>
	<path style="fill:#231F20;" d="M325.246,315.45c-2.759,0-5.466,1.122-7.418,3.074c-1.951,1.951-3.074,4.658-3.074,7.418
		c0,2.77,1.123,5.466,3.074,7.417c1.951,1.962,4.658,3.075,7.418,3.075s5.466-1.113,7.418-3.075c1.951-1.95,3.074-4.648,3.074-7.417
		c0-2.759-1.123-5.466-3.074-7.418C330.712,316.573,328.005,315.45,325.246,315.45z"/>
</g>
<g>
</g>
<g>
</g>
<g>
</g>
<g>
</g>
<g>
</g>
<g>
</g>
<g>
</g>
<g>
</g>
<g>
</g>
<g>
</g>
<g>
</g>
<g>
</g>
<g>
</g>
<g>
</g>
<g>
</g>
</svg>
