<?xml version="1.0" encoding="iso-8859-1"?>
<!-- Generator: Adobe Illustrator 19.0.0, SVG Export Plug-In . SVG Version: 6.00 Build 0)  -->
<svg version="1.1" id="Layer_1" xmlns="http://www.w3.org/2000/svg" xmlns:xlink="http://www.w3.org/1999/xlink" x="0px" y="0px"
	 viewBox="0 0 512 512" style="enable-background:new 0 0 512 512;" xml:space="preserve">
<path style="fill:#356272;" d="M427.799,436.93H77.758c-37.174,0-67.309-30.135-67.309-67.308v-31.956h470.204L427.799,436.93z"/>
<polygon style="fill:#ECF0F1;" points="501.551,295.868 10.449,295.868 10.449,337.664 480.653,337.664 "/>
<rect x="47.282" y="238.403" style="fill:#FFA800;" width="158.824" height="57.469"/>
<g>
	<rect x="47.282" y="180.934" style="fill:#E74C3C;" width="101.878" height="57.469"/>
	<rect x="378.337" y="243.283" style="fill:#E74C3C;" width="83.592" height="52.245"/>
</g>
<rect x="396.622" y="201.487" style="fill:#2ECC71;" width="47.02" height="41.796"/>
<g>
	<path style="fill:#231F20;" d="M510.44,290.374c-1.904-3.079-5.267-4.955-8.889-4.955h-29.17v-42.133
		c0-5.77-4.679-10.449-10.449-10.449h-7.837V201.49c0-5.77-4.679-10.449-10.449-10.449h-47.02c-5.77,0-10.449,4.679-10.449,10.449
		v31.347h-7.837c-5.77,0-10.449,4.679-10.449,10.449v42.133H216.555v-47.02c0-5.77-4.679-10.449-10.449-10.449h-46.498v-47.02
		c0-5.77-4.679-10.449-10.449-10.449h-40.49V75.069c0-5.77-4.679-10.449-10.449-10.449s-10.449,4.679-10.449,10.449v95.413h-40.49
		c-5.77,0-10.449,4.679-10.449,10.449v104.49H10.449C4.679,285.421,0,290.1,0,295.87v73.752c0,42.875,34.883,77.758,77.758,77.758
		h350.041c3.861,0,7.408-2.129,9.223-5.538l52.854-99.265c0.023-0.044,0.038-0.09,0.061-0.134c0.019-0.037,0.044-0.068,0.062-0.106
		l20.898-41.796C512.516,297.302,512.343,293.456,510.44,290.374z M388.789,253.735h62.694v31.347h-62.694V253.735z
		 M407.074,211.939h26.122v20.898h-26.122V211.939z M57.731,191.379h80.98v36.571h-80.98V191.379z M57.731,248.848h137.927v36.571
		H57.731V248.848z M20.898,306.317h463.746l-10.449,20.898H20.898V306.317z M421.524,426.481H77.758
		c-31.353,0-56.86-25.507-56.86-56.86v-21.507h323.657v41.818h-4.297c-6.896,0-12.506-6.562-12.506-14.629
		c0-5.77-4.679-10.449-10.449-10.449s-10.449,4.679-10.449,10.449c0,19.59,14.985,35.527,33.404,35.527h29.492
		c18.419,0,33.404-15.937,33.404-35.527c0-5.77-4.679-10.449-10.449-10.449s-10.449,4.679-10.449,10.449
		c0,8.067-5.61,14.629-12.506,14.629h-4.297v-41.818h97.799L421.524,426.481z"/>
	<path style="fill:#231F20;" d="M195.483,374.432h-1.045c-5.77,0-10.449,4.679-10.449,10.449s4.679,10.449,10.449,10.449h1.045
		c5.77,0,10.449-4.679,10.449-10.449S201.253,374.432,195.483,374.432z"/>
	<path style="fill:#231F20;" d="M151.074,374.432H93.083c-5.77,0-10.449,4.679-10.449,10.449s4.679,10.449,10.449,10.449h57.992
		c5.77,0,10.449-4.679,10.449-10.449S156.844,374.432,151.074,374.432z"/>
</g>
<g>
</g>
<g>
</g>
<g>
</g>
<g>
</g>
<g>
</g>
<g>
</g>
<g>
</g>
<g>
</g>
<g>
</g>
<g>
</g>
<g>
</g>
<g>
</g>
<g>
</g>
<g>
</g>
<g>
</g>
</svg>
