<?xml version="1.0" encoding="iso-8859-1"?>
<!-- Generator: Adobe Illustrator 19.0.0, SVG Export Plug-In . SVG Version: 6.00 Build 0)  -->
<svg version="1.1" id="Layer_1" xmlns="http://www.w3.org/2000/svg" xmlns:xlink="http://www.w3.org/1999/xlink" x="0px" y="0px"
	 viewBox="0 0 512 512" style="enable-background:new 0 0 512 512;" xml:space="preserve">
<polygon style="fill:#FFB74D;" points="399.548,98.68 399.548,473.339 31.849,473.339 31.849,0 301.401,0 399.402,98.534 "/>
<polygon style="fill:#FFA91E;" points="399.548,98.68 399.548,473.339 215.698,473.339 215.698,0 301.401,0 399.402,98.534 "/>
<g>
	<rect x="91.46" y="257.526" style="fill:#FFFFFF;" width="137.927" height="31.347"/>
	<rect x="90.467" y="130.675" style="fill:#FFFFFF;" width="137.927" height="31.347"/>
	<rect x="90.467" y="194.414" style="fill:#FFFFFF;" width="250.776" height="31.347"/>
</g>
<g>
	<rect x="215.698" y="130.675" style="fill:#D9D8DB;" width="12.696" height="31.347"/>
	<rect x="215.698" y="257.526" style="fill:#D9D8DB;" width="13.688" height="31.347"/>
	<rect x="215.698" y="194.414" style="fill:#D9D8DB;" width="125.544" height="31.347"/>
</g>
<polygon style="fill:#FF8900;" points="399.402,98.532 301.402,98.532 301.402,0 "/>
<path style="fill:#FD7052;" d="M480.151,406.601c0,37.972-20.083,71.252-50.197,89.799v0.01c-16.05,9.885-34.962,15.59-55.202,15.59
	h-0.157c-0.199,0-0.397,0-0.596-0.01c-19.968-0.136-38.599-5.82-54.45-15.6c-6.76-4.159-13.019-9.07-18.651-14.608
	c-16.927-16.635-28.264-38.933-30.929-63.843c-0.397-3.72-0.616-7.502-0.616-11.337c0-31.587,13.908-59.925,35.913-79.245
	c0.24-0.209,0.481-0.418,0.721-0.616c8.579-7.398,18.369-13.427,29.017-17.774c12.048-4.901,25.203-7.659,38.996-7.743
	c0.251-0.01,0.502-0.01,0.752-0.01C432.964,301.213,480.151,348.39,480.151,406.601z"/>
<path style="fill:#FF4F18;" d="M480.151,406.601c0,37.972-20.083,71.252-50.197,89.799v0.01c-16.05,9.885-34.962,15.59-55.202,15.59
	h-0.157c-0.199,0-0.397,0-0.596-0.01V301.223c0.251-0.01,0.502-0.01,0.752-0.01C432.964,301.213,480.151,348.39,480.151,406.601z"/>
<path style="fill:#0088FF;" d="M429.203,442.42v53.99c-16.05,9.885-34.962,15.59-55.202,15.59h-0.157l0.073-69.58l0.073-67.594
	l0.031-28.62l5.987,10.428l10.439,18.192l34.879,60.834L429.203,442.42z"/>
<path style="fill:#67BFFF;" d="M374.022,346.196v0.01l-0.031,28.62l-0.073,67.594L373.845,512c-0.199,0-0.397,0-0.596-0.01
	c-19.968-0.136-38.599-5.82-54.45-15.6V442.41l3.971-6.938l34.774-60.646l15.705-27.355l0.752-1.306L374.022,346.196z"/>
<polygon style="fill:#FFC473;" points="318.796,442.42 318.796,442.413 322.768,435.475 357.549,374.829 373.996,346.164 
	374.021,346.203 390.444,374.829 425.331,435.657 429.204,442.42 "/>
<polygon style="fill:#FFDBA8;" points="318.796,442.42 318.796,442.413 322.768,435.475 357.549,374.829 373.996,346.164 
	374.021,346.203 373.923,442.42 "/>
<polygon style="fill:#3C3A41;" points="357.553,374.826 373.996,346.164 374.019,346.2 390.44,374.826 "/>
<polygon style="fill:#57555C;" points="373.989,374.826 357.553,374.826 373.996,346.164 374.019,346.2 "/>
<g>
</g>
<g>
</g>
<g>
</g>
<g>
</g>
<g>
</g>
<g>
</g>
<g>
</g>
<g>
</g>
<g>
</g>
<g>
</g>
<g>
</g>
<g>
</g>
<g>
</g>
<g>
</g>
<g>
</g>
</svg>
