<?xml version="1.0" encoding="iso-8859-1"?>
<!-- Generator: Adobe Illustrator 19.0.0, SVG Export Plug-In . SVG Version: 6.00 Build 0)  -->
<svg version="1.1" id="Capa_1" xmlns="http://www.w3.org/2000/svg" xmlns:xlink="http://www.w3.org/1999/xlink" x="0px" y="0px"
	 viewBox="0 0 512 512" style="enable-background:new 0 0 512 512;" xml:space="preserve">
<path style="fill:#AAE6FF;" d="M41.236,367.032h169.96h219.569c17.251,0,31.236-13.985,31.236-31.236V82.236
	C462,64.985,448.015,51,430.764,51H41.236C23.985,51,10,64.985,10,82.236v253.561C10,353.048,23.985,367.032,41.236,367.032z"/>
<rect x="10" y="113" style="fill:#BEBEBE;" width="452" height="77"/>
<circle style="fill:#E6AA46;" cx="141.13" cy="278.22" r="40.42"/>
<circle style="fill:#FF5A5A;" cx="90.72" cy="278.22" r="40.42"/>
<path style="fill:#FAE196;" d="M100.709,278.216c0,12.789,5.945,24.182,15.216,31.589c9.27-7.407,15.216-18.801,15.216-31.589
	s-5.945-24.182-15.216-31.589C106.655,254.034,100.709,265.428,100.709,278.216z"/>
<circle style="fill:#F5C86E;" cx="384" cy="343" r="118"/>
<path d="M141.132,227.794c-9.179,0-17.786,2.478-25.207,6.781c-7.422-4.304-16.028-6.781-25.207-6.781
	c-27.803,0-50.423,22.62-50.423,50.422c0,27.803,22.62,50.423,50.423,50.423c9.179,0,17.786-2.478,25.207-6.781
	c7.422,4.304,16.028,6.781,25.207,6.781c27.803,0,50.422-22.62,50.422-50.423C191.555,250.414,168.935,227.794,141.132,227.794z
	 M115.925,295.232c-3.291-4.86-5.216-10.717-5.216-17.016c0-6.299,1.924-12.156,5.216-17.016c3.291,4.86,5.216,10.717,5.216,17.016
	C121.141,284.515,119.216,290.372,115.925,295.232z M60.295,278.216c0-16.775,13.647-30.422,30.423-30.422
	c3.207,0,6.297,0.502,9.202,1.426c-5.793,8.209-9.21,18.208-9.21,28.996c0,10.789,3.417,20.788,9.21,28.997
	c-2.904,0.924-5.995,1.426-9.202,1.426C73.942,308.639,60.295,294.992,60.295,278.216z M141.132,308.639
	c-3.207,0-6.297-0.502-9.202-1.426c5.793-8.209,9.21-18.208,9.21-28.997c0-10.788-3.417-20.788-9.21-28.996
	c2.905-0.924,5.995-1.426,9.202-1.426c16.775,0,30.422,13.647,30.422,30.422C171.555,294.992,157.907,308.639,141.132,308.639z"/>
<path d="M471.94,250.079c0.038-0.355,0.06-0.715,0.06-1.08v-59v-77V82.236C472,59.499,453.501,41,430.764,41H277.667
	c-5.523,0-10,4.477-10,10s4.477,10,10,10h153.097C442.474,61,452,70.526,452,82.236V103H20V82.236C20,70.526,29.526,61,41.236,61
	H194c5.523,0,10-4.477,10-10s-4.477-10-10-10H41.236C18.499,41,0,59.499,0,82.236V113v77v145.797
	c0,22.737,18.499,41.235,41.236,41.235h219.407c10.873,39.147,40.071,71.818,79.346,86.198c1.135,0.416,2.296,0.613,3.438,0.613
	c4.078,0,7.908-2.513,9.391-6.564c1.899-5.187-0.766-10.93-5.952-12.829C304.479,428.93,276,388.16,276,343
	c0-59.551,48.449-108,108-108s108,48.449,108,108c0,44.402-26.627,83.768-67.835,100.288c-5.126,2.055-7.616,7.876-5.561,13.003
	s7.875,7.616,13.003,5.561c23.459-9.405,43.467-25.415,57.859-46.299C504.208,394.16,512,369.072,512,343
	C512,306.446,496.595,273.425,471.94,250.079z M452,123v57H20v-57H452z M256,343c0,4.725,0.277,9.406,0.791,14.032H41.236
	c-11.709,0-21.236-9.526-21.236-21.235V200h432v34.605C432.285,222.193,408.968,215,384,215C313.42,215,256,272.42,256,343z"/>
<path d="M427.379,374.227c0-22.218-19.46-40.294-43.379-40.294c-12.892,0-23.379-9.104-23.379-20.293s10.488-20.293,23.379-20.293
	s23.379,9.104,23.379,20.293c0,5.523,4.477,10,10,10s10-4.477,10-10c0-19.021-14.267-34.994-33.379-39.201v-9.855
	c0-5.523-4.477-10-10-10s-10,4.477-10,10v9.855c-19.113,4.207-33.379,20.18-33.379,39.201c0,22.218,19.46,40.293,43.379,40.293
	c12.892,0,23.379,9.104,23.379,20.294S396.892,394.52,384,394.52s-23.379-9.104-23.379-20.293c0-5.523-4.477-10-10-10
	s-10,4.477-10,10c0,19.021,14.267,34.994,33.379,39.201v7.99c0,5.523,4.477,10,10,10s10-4.477,10-10v-7.99
	C413.113,409.221,427.379,393.247,427.379,374.227z"/>
<path d="M384,451c-2.63,0-5.21,1.07-7.07,2.93c-1.86,1.86-2.93,4.44-2.93,7.07s1.07,5.21,2.93,7.07c1.86,1.86,4.44,2.93,7.07,2.93
	s5.21-1.07,7.07-2.93S394,463.63,394,461s-1.07-5.21-2.93-7.07C389.21,452.07,386.63,451,384,451z"/>
<path d="M238.33,61c2.64,0,5.21-1.07,7.08-2.93c1.86-1.86,2.92-4.44,2.92-7.07s-1.06-5.21-2.92-7.07c-1.87-1.86-4.44-2.93-7.08-2.93
	c-2.63,0-5.21,1.07-7.07,2.93s-2.93,4.44-2.93,7.07s1.07,5.21,2.93,7.07S235.7,61,238.33,61z"/>
<g>
</g>
<g>
</g>
<g>
</g>
<g>
</g>
<g>
</g>
<g>
</g>
<g>
</g>
<g>
</g>
<g>
</g>
<g>
</g>
<g>
</g>
<g>
</g>
<g>
</g>
<g>
</g>
<g>
</g>
</svg>
