<?xml version="1.0" encoding="iso-8859-1"?>
<!-- Generator: Adobe Illustrator 19.0.0, SVG Export Plug-In . SVG Version: 6.00 Build 0)  -->
<svg version="1.1" id="Capa_1" xmlns="http://www.w3.org/2000/svg" xmlns:xlink="http://www.w3.org/1999/xlink" x="0px" y="0px"
	 viewBox="0 0 512.001 512.001" style="enable-background:new 0 0 512.001 512.001;" xml:space="preserve">
<path style="fill:#6E87F5;" d="M286.026,166.078v59.909h215.976C488.702,112.958,399.054,23.306,286.026,10v87.087"/>
<path d="M502.002,235.986H286.026c-5.522,0-10-4.478-10-10v-59.909c0-5.522,4.478-10,10-10s10,4.478,10,10v49.909h194.465
	c-16.54-100.072-94.394-177.93-194.465-194.476v75.576c0,5.522-4.478,10-10,10s-10-4.478-10-10V10c0-2.855,1.221-5.575,3.355-7.473
	c2.134-1.897,4.974-2.791,7.813-2.459c56.889,6.697,110.617,32.785,151.288,73.458s66.756,94.402,73.45,151.291
	c0.334,2.837-0.562,5.68-2.459,7.814C507.577,234.766,504.857,235.986,502.002,235.986z"/>
<path d="M286.026,141.294c-5.522,0-10-4.478-10-10v-0.264c0-5.522,4.478-10,10-10s10,4.478,10,10v0.264
	C296.026,136.816,291.549,141.294,286.026,141.294z"/>
<path style="fill:#FF5A5A;" d="M242,270.013V38C113.87,38,10,141.87,10,270s103.87,232,232,232s232-103.87,232-232v0.013H242z"/>
<path d="M235.335,462.774c-0.082,0-0.164-0.001-0.246-0.003c-44.707-1.081-87.017-16.319-122.356-44.067
	c-4.344-3.411-5.101-9.697-1.689-14.041c3.41-4.345,9.695-5.102,14.041-1.689c31.921,25.064,70.127,38.828,110.487,39.804
	c5.521,0.134,9.89,4.718,9.756,10.238C245.195,458.455,240.745,462.774,235.335,462.774z"/>
<path d="M263.697,461.418c-4.994,0-9.311-3.734-9.917-8.816c-0.654-5.484,3.262-10.46,8.745-11.114l0.213-0.025
	c5.478-0.653,10.459,3.261,11.114,8.745c0.654,5.484-3.262,10.46-8.745,11.114l-0.213,0.025
	C264.492,461.394,264.093,461.418,263.697,461.418z"/>
<path style="fill:#A5DC69;" d="M429.895,406.087C457.632,367.858,474,320.844,474,270v0.013H242L429.895,406.087z"/>
<path d="M474,260c-0.177,0-0.353,0.005-0.527,0.014H252V38c0-5.522-4.478-10-10-10c-64.641,0-125.412,25.173-171.12,70.88
	C25.173,144.588,0,205.359,0,270s25.173,125.412,70.88,171.12C116.588,486.827,177.359,512,242,512s125.412-25.173,171.12-70.88
	C458.827,395.412,484,334.641,484,270C484,264.477,479.522,260,474,260z M242,492c-122.411,0-222-99.589-222-222
	c0-119.057,94.216-216.525,212-221.777v221.791c0,3.331,1.635,6.273,4.139,8.09c-0.001,0.003-0.003,0.006-0.004,0.009
	l179.53,130.016C374.957,459.205,312.24,492,242,492z M427.416,391.945L272.858,280.014h190.919
	C461.939,321.221,448.803,359.534,427.416,391.945z"/>
<g>
</g>
<g>
</g>
<g>
</g>
<g>
</g>
<g>
</g>
<g>
</g>
<g>
</g>
<g>
</g>
<g>
</g>
<g>
</g>
<g>
</g>
<g>
</g>
<g>
</g>
<g>
</g>
<g>
</g>
</svg>
