<?xml version="1.0" encoding="iso-8859-1"?>
<!-- Generator: Adobe Illustrator 19.0.0, SVG Export Plug-In . SVG Version: 6.00 Build 0)  -->
<svg version="1.1" id="Capa_1" xmlns="http://www.w3.org/2000/svg" xmlns:xlink="http://www.w3.org/1999/xlink" x="0px" y="0px"
	 viewBox="0 0 511.999 511.999" style="enable-background:new 0 0 511.999 511.999;" xml:space="preserve">
<path style="fill:#6E87F5;" d="M427.743,502H84.257c-31.485,0-57.009-25.524-57.009-57.009V67.009
	C27.248,35.524,52.772,10,84.257,10h343.486c31.485,0,57.009,25.524,57.009,57.009V444.99C484.752,476.476,459.228,502,427.743,502z
	"/>
<rect x="81.25" y="64" style="fill:#D7FA91;" width="348" height="104"/>
<g>
	<rect x="81.25" y="332" style="fill:#D7D7E6;" width="116" height="116"/>
	<rect x="81.25" y="216" style="fill:#D7D7E6;" width="116" height="116"/>
	<rect x="197.25" y="332" style="fill:#D7D7E6;" width="116" height="116"/>
</g>
<rect x="313.25" y="216" style="fill:#F5C86E;" width="116" height="232"/>
<rect x="197.25" y="216" style="fill:#D7D7E6;" width="116" height="116"/>
<path d="M439.248,64c0-5.523-4.478-10-10-10h-348c-5.522,0-10,4.477-10,10v104c0,5.523,4.478,10,10,10h348c5.522,0,10-4.477,10-10
	V64z M91.248,74h232.308l-83.672,83.673c-0.105,0.105-0.196,0.218-0.295,0.327h-57.664l24.75-24.75
	c3.905-3.905,3.905-10.237,0-14.143c-3.906-3.904-10.236-3.904-14.143,0L153.639,158H91.248V74z M419.248,158H267.841l84-84h67.407
	V158z"/>
<path d="M164.748,264h-15.5v-15.5c0-5.523-4.478-10-10-10s-10,4.477-10,10V264h-15.5c-5.522,0-10,4.477-10,10s4.478,10,10,10h15.5
	v15.5c0,5.523,4.478,10,10,10s10-4.477,10-10V284h15.5c5.522,0,10-4.477,10-10S170.27,264,164.748,264z"/>
<path d="M280.748,380h-51c-5.522,0-10,4.477-10,10s4.478,10,10,10h51c5.522,0,10-4.477,10-10S286.27,380,280.748,380z"/>
<path d="M255.248,370.83c2.63,0,5.21-1.06,7.069-2.92c1.86-1.87,2.931-4.44,2.931-7.08c0-2.63-1.07-5.2-2.931-7.07
	c-1.859-1.86-4.439-2.93-7.069-2.93c-2.63,0-5.21,1.07-7.07,2.93s-2.93,4.44-2.93,7.07c0,2.64,1.069,5.21,2.93,7.08
	C250.038,369.77,252.618,370.83,255.248,370.83z"/>
<path d="M255.248,409.17c-2.63,0-5.21,1.06-7.07,2.93c-1.86,1.86-2.93,4.43-2.93,7.07c0,2.63,1.069,5.21,2.93,7.07
	c1.86,1.86,4.44,2.93,7.07,2.93s5.21-1.07,7.069-2.93c1.86-1.86,2.931-4.44,2.931-7.07s-1.07-5.21-2.931-7.07
	C260.458,410.23,257.877,409.17,255.248,409.17z"/>
<path d="M229.748,284h51c5.522,0,10-4.477,10-10s-4.478-10-10-10h-51c-5.522,0-10,4.477-10,10S224.225,284,229.748,284z"/>
<path d="M164.35,364.897c-3.906-3.905-10.236-3.905-14.143,0l-10.96,10.96l-10.96-10.96c-3.906-3.905-10.236-3.905-14.143,0
	c-3.905,3.905-3.905,10.237,0,14.143l10.96,10.96l-10.96,10.96c-3.905,3.905-3.905,10.237,0,14.143
	c1.953,1.953,4.512,2.929,7.071,2.929c2.559,0,5.118-0.976,7.071-2.929l10.96-10.96l10.96,10.96
	c1.953,1.953,4.512,2.929,7.071,2.929s5.118-0.976,7.071-2.929c3.905-3.905,3.905-10.237,0-14.143L153.39,390l10.96-10.96
	C168.255,375.135,168.255,368.803,164.35,364.897z"/>
<path d="M224.267,111.51c2.63,0,5.21-1.07,7.07-2.93s2.93-4.44,2.93-7.07s-1.069-5.21-2.93-7.07s-4.43-2.93-7.07-2.93
	c-2.63,0-5.21,1.07-7.069,2.93c-1.86,1.86-2.931,4.44-2.931,7.07s1.07,5.21,2.931,7.07
	C219.057,110.44,221.637,111.51,224.267,111.51z"/>
<path d="M429.248,206h-116h-116h-116c-5.522,0-10,4.477-10,10v116v116c0,5.523,4.478,10,10,10h116h116h116c5.522,0,10-4.477,10-10
	V216C439.248,210.477,434.77,206,429.248,206z M303.248,322h-96v-96h96V322z M91.248,226h96v96h-96V226z M91.248,342h96v96h-96V342z
	 M207.248,342h96v96h-96L207.248,342L207.248,342z M419.248,438h-96V332V226h96V438z"/>
<path d="M347.248,318h48c5.522,0,10-4.477,10-10s-4.478-10-10-10h-48c-5.522,0-10,4.477-10,10S341.725,318,347.248,318z"/>
<path d="M347.248,366h48c5.522,0,10-4.477,10-10s-4.478-10-10-10h-48c-5.522,0-10,4.477-10,10S341.725,366,347.248,366z"/>
<path d="M494.752,67.009C494.752,30.06,464.692,0,427.743,0H84.257c-36.949,0-67.01,30.06-67.01,67.009V444.99
	c0,36.949,30.061,67.009,67.01,67.009h343.485c36.949,0,67.01-30.06,67.01-67.009V229c0-5.523-4.478-10-10-10s-10,4.477-10,10
	v215.991c0,25.921-21.089,47.009-47.01,47.009H84.257c-25.921,0-47.01-21.088-47.01-47.009V67.009
	C37.248,41.088,58.336,20,84.257,20h343.485c25.921,0,47.01,21.088,47.01,47.009V155c0,5.523,4.478,10,10,10s10-4.477,10-10V67.009z
	"/>
<path d="M477.687,184.43c-1.87,1.86-2.939,4.44-2.939,7.07s1.069,5.21,2.939,7.07c1.851,1.86,4.431,2.93,7.07,2.93
	c2.63,0,5.2-1.07,7.07-2.93c1.859-1.86,2.92-4.44,2.92-7.07s-1.061-5.21-2.92-7.07c-1.86-1.86-4.44-2.93-7.07-2.93
	C482.118,181.5,479.538,182.57,477.687,184.43z"/>
<g>
</g>
<g>
</g>
<g>
</g>
<g>
</g>
<g>
</g>
<g>
</g>
<g>
</g>
<g>
</g>
<g>
</g>
<g>
</g>
<g>
</g>
<g>
</g>
<g>
</g>
<g>
</g>
<g>
</g>
</svg>
