<?xml version="1.0" encoding="iso-8859-1"?>
<!-- Generator: Adobe Illustrator 19.0.0, SVG Export Plug-In . SVG Version: 6.00 Build 0)  -->
<svg version="1.1" id="Capa_1" xmlns="http://www.w3.org/2000/svg" xmlns:xlink="http://www.w3.org/1999/xlink" x="0px" y="0px"
	 viewBox="0 0 512 512" style="enable-background:new 0 0 512 512;" xml:space="preserve">
<path style="fill:#E3E3E3;" d="M338.947,160.146h-59.991h-59.991l-21.247,139.968v0.01c22.268,0,198.347,0,221.215,0v-39.994v-3
	V200.14l19.997-39.994L338.947,160.146L338.947,160.146z"/>
<path style="fill:#4DBBEB;" d="M418.935,260.131h82.987c0,51.742-27.566,97.745-65.67,126.99
	c-9.389,0.75-18.657,4.849-26.816,12.298c-18.167,16.567-41.823,16.567-59.991,0s-41.823-16.567-59.991,0s-41.823,16.567-59.991,0
	s-44.823-16.567-62.99,0s-44.823,16.567-62.99,0s-41.823-16.567-59.991,0c-1.96,1.79-4.129,3.389-6.419,4.789L9.998,380.112v-79.988
	h42.993h59.991h84.737h101.234l19.997-39.994H418.935z"/>
<g>
	<path style="fill:#57555C;" d="M338.947,120.153v39.994h-59.991v-39.994C285.314,120.153,332.589,120.153,338.947,120.153z"/>
	<polygon style="fill:#57555C;" points="99.654,220.137 112.982,300.124 52.992,300.124 52.992,220.137 	"/>
</g>
<polygon style="fill:#E3E3E3;" points="92.985,180.143 99.654,220.137 52.992,220.137 52.992,180.143 "/>
<path d="M438.931,310.123c5.519,0,9.998-4.479,9.998-9.998c0-5.519-4.479-9.998-9.998-9.998s-9.998,4.479-9.998,9.998
	C428.933,305.644,433.412,310.123,438.931,310.123z"/>
<path d="M398.938,290.126c-5.519,0-9.998,4.479-9.998,9.998c0,5.519,4.479,9.998,9.998,9.998c5.519,0,9.998-4.479,9.998-9.998
	C408.936,294.605,404.457,290.126,398.938,290.126z"/>
<rect x="368.942" y="190.141" width="19.997" height="19.997"/>
<path d="M358.944,290.126c-5.519,0-9.998,4.479-9.998,9.998c0,5.519,4.479,9.998,9.998,9.998c5.519,0,9.998-4.479,9.998-9.998
	C368.942,294.605,364.463,290.126,358.944,290.126z"/>
<rect x="328.949" y="190.141" width="19.997" height="19.997"/>
<rect x="288.955" y="190.141" width="19.997" height="19.997"/>
<rect x="248.961" y="190.141" width="19.997" height="19.997"/>
<path d="M155.976,330.12c-5.519,0-9.998,4.479-9.998,9.998c0,5.519,4.479,9.998,9.998,9.998c5.519,0,9.998-4.479,9.998-9.998
	C165.974,334.599,161.495,330.12,155.976,330.12z"/>
<path d="M502.109,401.841c-7.649-0.082-18.639-3.146-25.943-9.809c-5.349-4.878-11.249-8.618-17.443-11.153
	c33.619-32.666,53.198-76.475,53.198-120.747c0-5.521-4.477-9.998-9.998-9.998h-72.989V202.5l18.941-37.883
	c1.55-3.1,1.384-6.78-0.438-9.727c-1.822-2.948-5.04-4.742-8.506-4.742h-89.986v-29.995c0-5.521-4.477-9.998-9.998-9.998h-19.997
	V70.159h9.998c5.521,0,9.998-4.477,9.998-9.998s-4.477-9.998-9.998-9.998h-9.998v-9.998c0-5.521-4.477-9.998-9.998-9.998
	c-5.521,0-9.998,4.477-9.998,9.998v9.998h-9.998c-5.521,0-9.998,4.477-9.998,9.998s4.477,9.998,9.998,9.998h9.998v39.994h-19.997
	c-5.521,0-9.998,4.477-9.998,9.998v29.995h-49.992c-4.942,0-9.144,3.611-9.885,8.498l-19.958,131.48h-67.67l-18.604-111.628
	c-0.804-4.82-4.975-8.354-9.862-8.354H52.992c-5.522,0-9.998,4.477-9.998,9.998v109.983H9.998c-5.522,0-9.998,4.477-9.998,9.998
	v79.988c0,2.854,1.22,5.571,3.351,7.469l15.03,13.375c-2.678,0.571-5.349,0.886-7.868,0.886c-0.164,0-0.326-0.003-0.488-0.003
	c-5.466,0-9.93,4.398-9.995,9.879c-0.065,5.521,4.357,10.051,9.878,10.116c10.14,0.161,21.439-2.877,30.65-8.08
	c1.304-0.461,2.526-1.196,3.574-2.202c2.193-1.463,4.241-3.052,6.097-4.747c14.346-13.083,32.17-13.081,46.516,0
	c10.632,9.696,24.21,15.037,38.232,15.037c14.022,0,27.6-5.34,38.232-15.037c14.346-13.081,35.17-13.082,49.515,0
	c21.972,20.038,51.494,20.037,73.466,0c14.346-13.082,32.171-13.081,46.516,0c21.972,20.038,51.494,20.037,73.469-0.003
	c6.315-5.766,13.526-9.125,20.863-9.714c0.011-0.001,0.022-0.002,0.033-0.003c8.998-0.73,17.852,2.638,25.617,9.719
	c9.848,8.981,25.236,14.88,39.205,15.029c0.037,0.001,0.073,0.001,0.109,0.001c5.472,0,9.936-4.406,9.995-9.892
	C512.059,406.423,507.631,401.898,502.109,401.841z M288.955,130.151h39.994v19.997h-39.994V130.151z M227.561,170.145h51.395
	h59.991h83.806l-12.761,25.525c-0.694,1.388-1.056,2.919-1.056,4.471v49.992H318.95c-3.787,0-7.249,2.14-8.943,5.527l-17.233,34.467
	h-83.425L227.561,170.145z M62.99,230.135h28.192l9.998,59.991H62.99V230.135z M84.516,190.142l3.332,19.997H62.99v-19.997H84.516z
	 M402.699,392.031c-14.346,13.082-32.171,13.082-46.516,0c-21.972-20.035-51.494-20.037-73.466,0
	c-14.346,13.082-32.171,13.082-46.516,0c-10.632-9.695-24.21-15.036-38.232-15.036s-27.6,5.34-38.232,15.036
	c-14.346,13.082-35.171,13.082-49.515,0c-21.691-19.781-50.736-20.017-72.619-0.74l-17.607-15.666v-65.503h32.995h59.991h185.971
	c3.787,0,7.249-2.14,8.943-5.526l17.233-34.468h166.414c-3.077,40.585-24.704,79.974-59.264,107.394
	C421.628,379.066,411.459,384.035,402.699,392.031z"/>
<path d="M502.109,461.831c-7.649-0.082-18.639-3.147-25.944-9.809c-21.971-20.036-51.493-20.036-73.466,0
	c-14.346,13.082-32.171,13.082-46.516,0c-21.972-20.036-51.494-20.036-73.466,0c-14.346,13.082-32.171,13.082-46.516,0
	c-10.632-9.695-24.21-15.036-38.232-15.036s-27.6,5.34-38.232,15.036c-14.346,13.082-35.171,13.082-49.515,0
	c-21.972-20.037-51.494-20.035-73.467,0c-7.457,6.803-18.474,9.811-26.243,9.811c-0.163,0-0.325-0.003-0.486-0.003
	c-5.465,0-9.928,4.396-9.995,9.876c-0.067,5.521,4.354,10.052,9.875,10.119c14.28,0.182,30.123-5.726,40.325-15.029
	c14.346-13.082,32.17-13.082,46.516,0c10.632,9.696,24.21,15.037,38.232,15.037c14.022,0,27.6-5.34,38.232-15.037
	c14.346-13.081,35.17-13.083,49.515,0c21.972,20.038,51.494,20.037,73.466,0c14.346-13.082,32.171-13.081,46.516,0
	c21.972,20.038,51.494,20.037,73.465,0c14.346-13.082,32.171-13.081,46.516,0c9.848,8.981,25.236,14.88,39.205,15.029
	c0.037,0.001,0.073,0.001,0.109,0.001c5.472,0,9.936-4.406,9.995-9.892C512.059,466.413,507.631,461.889,502.109,461.831z"/>
<path d="M112.982,330.12H52.992c-5.522,0-9.998,4.477-9.998,9.998c0,5.521,4.476,9.998,9.998,9.998h59.991
	c5.522,0,9.998-4.477,9.998-9.998C122.981,334.597,118.504,330.12,112.982,330.12z"/>
<g>
</g>
<g>
</g>
<g>
</g>
<g>
</g>
<g>
</g>
<g>
</g>
<g>
</g>
<g>
</g>
<g>
</g>
<g>
</g>
<g>
</g>
<g>
</g>
<g>
</g>
<g>
</g>
<g>
</g>
</svg>
