<?xml version="1.0" encoding="iso-8859-1"?>
<!-- Generator: Adobe Illustrator 19.0.0, SVG Export Plug-In . SVG Version: 6.00 Build 0)  -->
<svg version="1.1" id="Capa_1" xmlns="http://www.w3.org/2000/svg" xmlns:xlink="http://www.w3.org/1999/xlink" x="0px" y="0px"
	 viewBox="0 0 512 512" style="enable-background:new 0 0 512 512;" xml:space="preserve">
<path style="fill:#4DBAF6;" d="M278.091,10H50c-22.091,0-40,17.909-40,40v452h308.091V50C318.091,27.909,300.182,10,278.091,10z"/>
<rect x="10" y="64" style="fill:#FFFFFF;" width="308.09" height="438"/>
<circle style="fill:#A0E557;" cx="238.02" cy="238.02" r="124"/>
<g>
	<polyline style="fill:#FFFFFF;" points="128,288 227.667,288 227.667,256 117.486,256 	"/>
	<polyline style="fill:#FFFFFF;" points="357.687,256 272.91,256 272.91,288 348.333,288 	"/>
	<polyline style="fill:#FFFFFF;" points="120.333,208 285.348,208 285.348,176 135.667,176 	"/>
</g>
<path d="M355.224,365.224c-2.559,0-5.118-0.977-7.071-2.929l-27.224-27.224c-3.905-3.905-3.906-10.237,0-14.143
	c3.905-3.904,10.237-3.904,14.142,0l27.224,27.224c3.905,3.905,3.906,10.237,0,14.143
	C360.343,364.247,357.783,365.224,355.224,365.224z"/>
<path style="fill:#4DBAF6;" d="M332.914,382.251l109.529,109.531c13.624,13.624,35.714,13.624,49.339,0
	c6.811-6.813,10.218-15.74,10.218-24.669s-3.406-17.857-10.218-24.669L382.253,332.913L332.914,382.251z"/>
<path d="M475.407,411.926c-3.905-3.903-10.237-3.904-14.142,0c-3.905,3.905-3.906,10.237,0,14.143l23.446,23.446
	c4.701,4.7,7.29,10.95,7.29,17.599c0,6.646-2.589,12.896-7.289,17.598c-9.704,9.704-25.494,9.704-35.197,0l-102.458-102.46
	l35.197-35.196l16.847,16.847c3.905,3.904,10.237,3.904,14.142,0c3.905-3.905,3.905-10.237,0-14.143l-23.917-23.917
	c-3.905-3.904-10.236-3.904-14.142,0l-47.091,47.09v-31.319c0-1.345-0.269-2.626-0.751-3.797
	c27.404-24.553,44.68-60.193,44.68-99.796c0-73.888-60.112-134-134-134c-47.45,0-89.217,24.793-113.032,62.104
	c-0.487-0.073-0.98-0.123-1.487-0.123H64c-5.523,0-10,4.477-10,10s4.477,10,10,10h50.53c-4.777,11.297-8.039,23.383-9.549,36H64
	c-5.523,0-10,4.477-10,10s4.477,10,10,10h40.083c0.367,12.5,2.45,24.577,6.028,36H64c-5.523,0-10,4.478-10,10s4.477,10,10,10h54.218
	c22.046,43.853,67.464,74.019,119.801,74.019c25.668,0,49.671-7.26,70.071-19.827V492H20V74h288.091v17c0,5.523,4.477,10,10,10
	s10-4.477,10-10V50c0-27.57-22.43-50-50-50H50C22.43,0,0,22.43,0,50v452c0,5.522,4.477,10,10,10h308.091c5.523,0,10-4.478,10-10
	V391.571l107.281,107.283c8.751,8.75,20.245,13.126,31.74,13.126s22.99-4.376,31.742-13.127
	c8.478-8.479,13.146-19.751,13.146-31.739c0-11.99-4.669-23.263-13.147-31.741L475.407,411.926z M344.777,278H282.91v-12h65.631
	C347.504,270.093,346.244,274.096,344.777,278z M127.498,266h90.168v12h-86.404C129.795,274.096,128.535,270.093,127.498,266z
	 M136.597,186h138.751v12H131.277C132.825,193.883,134.601,189.876,136.597,186z M141.117,298h86.549c5.523,0,10-4.478,10-10v-32
	c0-5.523-4.477-10-10-10H124.303c-0.183-2.638-0.284-5.298-0.284-7.981c0-6.828,0.605-13.518,1.761-20.019h159.567
	c5.523,0,10-4.477,10-10v-32c0-5.523-4.477-10-10-10H149.718c20.922-25.605,52.733-41.981,88.301-41.981c62.86,0,114,51.14,114,114
	c0,2.683-0.1,5.343-0.284,7.981H272.91c-5.523,0-10,4.477-10,10v32c0,5.522,4.477,10,10,10h62.012
	c-20.128,32.399-56.035,54.019-96.902,54.019S161.245,330.399,141.117,298z M50,20h228.091c16.542,0,30,13.458,30,30v4H20v-4
	C20,33.458,33.458,20,50,20z"/>
<path d="M445.57,396.229c1.86-1.859,2.93-4.439,2.93-7.069s-1.07-5.21-2.93-7.07s-4.44-2.93-7.07-2.93s-5.21,1.069-7.07,2.93
	c-1.86,1.86-2.93,4.44-2.93,7.07c0,2.64,1.07,5.21,2.93,7.069c1.86,1.87,4.44,2.931,7.07,2.931S443.71,398.1,445.57,396.229z"/>
<path d="M160,46.25c5.523,0,10-4.477,10-10s-4.477-10-10-10h-0.099c-5.523,0-9.951,4.477-9.951,10S154.477,46.25,160,46.25z"/>
<path d="M112.049,46.25c5.523,0,10-4.477,10-10s-4.477-10-10-10h-0.099c-5.523,0-9.951,4.477-9.951,10S106.526,46.25,112.049,46.25z
	"/>
<path d="M64.099,46.25c5.523,0,10-4.477,10-10s-4.477-10-10-10H64c-5.523,0-9.951,4.477-9.951,10S58.576,46.25,64.099,46.25z"/>
<path d="M64,110c-5.523,0-10,4.477-10,10s4.477,10,10,10h72.896c5.523,0,10-4.477,10-10s-4.477-10-10-10H64z"/>
<path d="M352,130h77c5.523,0,10-4.477,10-10s-4.477-10-10-10h-77c-5.523,0-10,4.477-10,10S346.477,130,352,130z"/>
<path d="M475.5,130H502c5.523,0,10-4.477,10-10s-4.477-10-10-10h-26.5c-5.523,0-10,4.477-10,10S469.977,130,475.5,130z"/>
<path d="M502,166h-59.5c-5.523,0-10,4.477-10,10s4.477,10,10,10H502c5.523,0,10-4.477,10-10S507.523,166,502,166z"/>
<path d="M392.28,168.93c-1.86,1.86-2.92,4.44-2.92,7.07s1.06,5.21,2.92,7.07c1.87,1.86,4.44,2.93,7.08,2.93
	c2.63,0,5.2-1.07,7.06-2.93c1.87-1.86,2.94-4.44,2.94-7.07s-1.07-5.21-2.94-7.07c-1.85-1.86-4.43-2.93-7.06-2.93
	C396.72,166,394.14,167.07,392.28,168.93z"/>
<path d="M502,222h-84.543c-5.523,0-10,4.477-10,10s4.477,10,10,10H502c5.523,0,10-4.477,10-10S507.523,222,502,222z"/>
<path d="M114.02,334H64c-5.523,0-10,4.478-10,10s4.477,10,10,10h50.02c5.523,0,10-4.478,10-10S119.542,334,114.02,334z"/>
<path d="M153.333,390H64c-5.523,0-10,4.478-10,10s4.477,10,10,10h89.333c5.523,0,10-4.478,10-10S158.856,390,153.333,390z"/>
<path d="M208,410h56.091c5.523,0,10-4.478,10-10s-4.477-10-10-10H208c-5.523,0-10,4.478-10,10S202.477,410,208,410z"/>
<path d="M56.93,448.93C55.07,450.79,54,453.37,54,456s1.07,5.21,2.93,7.069C58.79,464.93,61.37,466,64,466
	c2.63,0,5.21-1.07,7.07-2.931C72.93,461.21,74,458.63,74,456s-1.07-5.21-2.93-7.07S66.63,446,64,446
	C61.37,446,58.79,447.069,56.93,448.93z"/>
<path d="M98.667,456c0,5.522,4.477,10,10,10H171c5.523,0,10-4.478,10-10s-4.477-10-10-10h-62.333
	C103.144,446,98.667,450.478,98.667,456z"/>
<path d="M208,466h56.091c5.523,0,10-4.478,10-10s-4.477-10-10-10H208c-5.523,0-10,4.478-10,10S202.477,466,208,466z"/>
<g>
</g>
<g>
</g>
<g>
</g>
<g>
</g>
<g>
</g>
<g>
</g>
<g>
</g>
<g>
</g>
<g>
</g>
<g>
</g>
<g>
</g>
<g>
</g>
<g>
</g>
<g>
</g>
<g>
</g>
</svg>
