<?xml version="1.0" encoding="iso-8859-1"?>
<!-- Generator: Adobe Illustrator 19.0.0, SVG Export Plug-In . SVG Version: 6.00 Build 0)  -->
<svg version="1.1" id="Capa_1" xmlns="http://www.w3.org/2000/svg" xmlns:xlink="http://www.w3.org/1999/xlink" x="0px" y="0px"
	 viewBox="0 0 512 512" style="enable-background:new 0 0 512 512;" xml:space="preserve">
<path style="fill:#6A80FF;" d="M207,342l-99.971,17.254C50.961,368.931,10,417.566,10,474.463V502h492v-27.218
	c0-57.038-41.158-105.75-97.396-115.272L302.06,342.148L207,342z"/>
<polygon style="fill:#FFFFFF;" points="256.127,502 399.484,358.643 302.061,342.147 207,342 112.446,358.319 "/>
<polygon style="fill:#FEDA9B;" points="302.061,306.988 302.061,342.147 256.082,502 210.061,342 210.061,306.988 "/>
<g>
	<path style="fill:#FFB954;" d="M356,222h24c26.51,0,48-21.49,48-48l0,0c0-26.51-21.49-48-48-48h-24V222z"/>
	<path style="fill:#FFB954;" d="M156,222h-24c-26.51,0-48-21.49-48-48l0,0c0-26.51,21.49-48,48-48h24V222z"/>
</g>
<path style="fill:#FEDA9B;" d="M256,318L256,318c-55.229,0-100-44.771-100-100v-68c0-55.228,44.771-100,100-100l0,0
	c55.228,0,100,44.771,100,100v68C356,273.229,311.229,318,256,318z"/>
<path style="fill:#686C83;" d="M356,166.333V150c0-55.228-44.771-100-100-100l0,0c-55.228,0-100,44.771-100,100v16.334h26.285
	c37.849,0,74.052-13.89,102.015-38.519l11.016,16.07c9.384,14.028,25.148,22.449,42.026,22.449H356V166.333z"/>
<path style="fill:#FF5D5D;" d="M280,240h-8c-8.837,0-16,7.163-16,16l0,0c0,8.837,7.163,16,16,16h8c8.837,0,16-7.163,16-16l0,0
	C296,247.163,288.837,240,280,240z"/>
<path d="M482.03,392.873c-19.327-22.874-46.23-38.224-75.756-43.223l-94.213-15.952v-21.093c18.46-10.98,33.451-27.203,42.9-46.606
	H367c17.645,0,32-14.355,32-32v-5.213c22.675-7.886,39-29.46,39-54.787c0-25.397-16.416-47.019-39.188-54.851
	C395.241,52.845,340.178,0,273,0h-34c-20.464,0-40.785,5.02-58.768,14.518c-4.883,2.579-6.751,8.629-4.172,13.513
	c2.579,4.883,8.629,6.751,13.513,4.172C204.688,24.22,221.779,20,239,20h34c55.076,0,100.469,42.224,105.525,96h-17.91
	C346.259,71.935,304.792,40,256,40s-90.259,31.936-104.615,76H133.47c1.104-11.902,4.18-23.405,9.204-34.308
	c2.312-5.016,0.119-10.956-4.897-13.267c-5.015-2.311-10.956-0.119-13.267,4.897c-6.684,14.505-10.485,29.892-11.329,45.83
	C90.412,126.985,74,148.605,74,174c0,31.981,26.019,58,58,58h14.887c4.38,34.33,24.649,63.76,53.174,80.678v20.372l-94.732,16.35
	C44.297,359.933,0,412.529,0,474.463V502c0,5.522,4.477,10,10,10h492c5.523,0,10-4.478,10-10v-27.219
	C512,444.836,501.356,415.747,482.03,392.873z M367,246h-4.616c1.201-4.56,2.121-9.232,2.729-14H379v2
	C379,240.617,373.617,246,367,246z M380,136c20.953,0,38,17.047,38,38s-17.047,38-38,38h-14v-62c0-4.742-0.302-9.415-0.887-14H380z
	 M256,60c49.626,0,90,40.374,90,90v6.334h-8.658c-13.567,0-26.17-6.732-33.714-18.01l-6.111-9.136
	c4.425-4.363,8.632-9,12.594-13.902c3.471-4.296,2.803-10.592-1.492-14.063c-4.296-3.471-10.592-2.802-14.063,1.492
	c-27.538,34.076-68.459,53.619-112.271,53.619H166V150C166,100.374,206.374,60,256,60z M94,174c0-20.953,17.047-38,38-38h14.887
	c-0.585,4.585-0.887,9.258-0.887,14v62h-14C111.047,212,94,194.953,94,174z M166,218v-41.667h16.285
	c36.717,0,71.641-12.069,100.027-33.905l4.692,7.014c11.262,16.838,30.08,26.89,50.337,26.89H346V218c0,9.772-1.572,19.183-4.465,28
	h-37.538c-3.926-9.387-13.203-16-23.997-16h-8c-14.336,0-26,11.664-26,26c0,14.337,11.664,26,26,26h8
	c10.794,0,20.071-6.613,23.997-16h28.1c-15.964,25.219-44.106,42-76.098,42C206.374,308,166,267.626,166,218z M286,256
	c0,3.309-2.691,6-6,6h-8c-3.309,0-6-2.691-6-6s2.691-6,6-6h8C283.309,250,286,252.691,286,256z M256,328
	c12.626,0,24.758-2.145,36.061-6.078v18.816l-35.979,125.086l-36.021-125.233v-18.626C231.329,325.871,243.42,328,256,328z
	 M202.783,352.876l32.963,114.601L133.161,364.892L202.783,352.876z M20,474.463c0-52.173,37.316-96.481,88.729-105.354l0.31-0.053
	L231.985,492H20V474.463z M492,492H280.27l57.969-57.969c3.905-3.905,3.905-10.237,0-14.143c-3.905-3.904-10.237-3.904-14.143,0
	l-47.715,47.715l32.82-114.105l93.734,15.871C454.543,378.107,492,422.439,492,474.781V492z"/>
<path d="M153.319,57.799c2.715,0,5.42-1.099,7.394-3.263l0.308-0.336c3.745-4.059,3.49-10.386-0.57-14.13
	c-4.059-3.745-10.385-3.489-14.13,0.57l-0.389,0.423c-3.72,4.082-3.428,10.407,0.654,14.127
	C148.502,56.938,150.914,57.799,153.319,57.799z"/>
<path d="M363.31,384.81c-2.63,0-5.21,1.07-7.07,2.931c-1.86,1.859-2.93,4.439-2.93,7.069s1.07,5.21,2.93,7.07
	c1.87,1.87,4.44,2.93,7.07,2.93s5.21-1.06,7.07-2.93c1.87-1.86,2.93-4.44,2.93-7.07s-1.06-5.21-2.93-7.069
	C368.52,385.88,365.95,384.81,363.31,384.81z"/>
<g>
</g>
<g>
</g>
<g>
</g>
<g>
</g>
<g>
</g>
<g>
</g>
<g>
</g>
<g>
</g>
<g>
</g>
<g>
</g>
<g>
</g>
<g>
</g>
<g>
</g>
<g>
</g>
<g>
</g>
</svg>
