<?xml version="1.0" encoding="utf-8"?>
<!-- Generator: Adobe Illustrator 23.0.1, SVG Export Plug-In . SVG Version: 6.00 Build 0)  -->
<svg version="1.1" id="Capa_1" xmlns="http://www.w3.org/2000/svg" xmlns:xlink="http://www.w3.org/1999/xlink" x="0px" y="0px"
	 viewBox="0 0 382.6 382.6" style="enable-background:new 0 0 382.6 382.6;" xml:space="preserve">
<style type="text/css">
	.st0{fill:#FFFFFF;}
	.st1{fill:#7B95AF;}
</style>
<polygon class="st0" points="319.3,16 63.3,16 63.3,80 159.3,80 159.3,248 223.3,248 223.3,80 319.3,80 "/>
<g>
	<path class="st1" d="M47.3,64v32v32h32V96h64v168h96V96h64v32h32V96V64V0h-288C47.3,0,47.3,64,47.3,64z M303.3,32v32h-96v168h-32
		V64h-96V32H303.3z"/>
	<polygon class="st1" points="288.7,264 320.7,296 61.9,296 93.9,264 71.3,241.4 0.7,312 71.3,382.6 93.9,360 61.9,328 320.7,328 
		288.7,360 311.3,382.6 381.9,312 311.3,241.4 	"/>
</g>
</svg>
