<?xml version="1.0" encoding="iso-8859-1"?>
<!-- Generator: Adobe Illustrator 19.1.0, SVG Export Plug-In . SVG Version: 6.00 Build 0)  -->
<svg version="1.1" id="Capa_1" xmlns="http://www.w3.org/2000/svg" xmlns:xlink="http://www.w3.org/1999/xlink" x="0px" y="0px"
	 viewBox="0 0 489.5 489.5" style="enable-background:new 0 0 489.5 489.5;" xml:space="preserve">
<g>
	<g>
		<path d="M449.9,21.25H39.5C17.7,21.25,0,38.95,0,60.75v277.3c0,21.8,17.7,39.5,39.5,39.5h161v44.2h-31.4c-5.2,0-9.5,4.3-9.5,9.5
			v27.5c0,5.2,4.3,9.5,9.5,9.5h151.3c5.2,0,9.5-4.3,9.5-9.5v-27.5c0-5.2-4.3-9.5-9.5-9.5H289v-44.1h161c21.8,0,39.5-17.7,39.5-39.5
			V60.75C489.4,38.95,471.7,21.25,449.9,21.25z M435.5,323.35H53.9V75.15h381.7v248.2H435.5z"/>
		<path d="M268.4,109.55h-47.3v180.1h47.3V109.55z M233.7,122.25H249l-15.3,15.3V122.25z M255.7,276.95h-15.4l15.4-15.4V276.95z
			 M255.7,244.85l-22,22v-15.6l22-22V244.85z M255.7,212.55l-22,22v-15.6l22-22V212.55z M255.7,180.25l-22,22v-15.6l22-22V180.25z
			 M255.7,147.85l-22,22v-15.6l22-22V147.85z"/>
		<rect x="287.7" y="192.75" width="47.3" height="96.9"/>
		<path d="M201.7,153.45h-47.3v136.1h47.3V153.45z M189,276.95h-22v-110.8h22V276.95z"/>
	</g>
</g>
<g>
</g>
<g>
</g>
<g>
</g>
<g>
</g>
<g>
</g>
<g>
</g>
<g>
</g>
<g>
</g>
<g>
</g>
<g>
</g>
<g>
</g>
<g>
</g>
<g>
</g>
<g>
</g>
<g>
</g>
</svg>
