<?xml version="1.0" encoding="iso-8859-1"?>
<!-- Generator: Adobe Illustrator 19.1.0, SVG Export Plug-In . SVG Version: 6.00 Build 0)  -->
<svg version="1.1" id="Capa_1" xmlns="http://www.w3.org/2000/svg" xmlns:xlink="http://www.w3.org/1999/xlink" x="0px" y="0px"
	 viewBox="0 0 481.517 481.517" style="enable-background:new 0 0 481.517 481.517;" xml:space="preserve">
<g>
	<g>
		<path d="M81.583,288.567l75.1-75.1c-5.8-9.2-11-18.9-15.3-29.3c-1.4-4.3-1.4-6.5,2.2-10c13.6-12.2,25.8-25.1,38.8-38
			c17.9-17.9,17.9-38.8,0-56.7c-10.8-10.8-20.8-20.8-30.9-30.9c-10.8-10.8-20.8-21.5-31.6-31.6c-16.5-16.5-38-16.5-55.3,0
			c-13,13-25.9,25.9-38.8,38.8c-12.2,12.2-18.7,26.6-20.1,43.1c-2.2,26.6,4.3,52.4,13.6,77.5
			C34.583,217.467,55.983,254.167,81.583,288.567z"/>
		<path d="M402.483,301.167c-16.5-17.2-38-17.2-55.3,0c-12.9,12.9-25.8,25.8-38.8,38.8c-3.6,3.6-6.5,4.3-10.8,2.2
			c-7.9-5-17.2-8.6-25.1-13.6c-1.7-1-3.2-2.2-4.9-3.2l-75.4,75.4c25.9,19.3,53.5,36.3,83.1,50.6c30.1,14.4,61,25.8,94,28
			c23.7,1.4,43.8-5,60.3-23c10.8-12.9,23.7-23.7,35.2-35.9c17.2-17.9,17.2-39.5,0-56.7
			C444.183,342.767,423.283,321.967,402.483,301.167z"/>
		<path d="M360.583,212.967c31.8,4.2,65.2-5.9,89.6-30.4c24.9-24.9,35-59.1,30.1-91.4c-0.8-5.2-7.1-7.3-10.8-3.6l-32.4,32.4
			c-15.4,15.4-40.3,15.4-55.7,0l-19.9-19.9c-15.4-15.4-15.4-40.3,0-55.7l32.4-32.4c3.7-3.7,1.6-10-3.6-10.8
			c-32.4-4.8-66.5,5.2-91.4,30.1c-24.4,24.4-34.6,57.8-30.4,89.6c1.8,14-2.9,28.1-12.9,38l-241.8,242.1
			c-18.4,18.4-18.3,48.2,0.1,66.7c18.4,18.4,48.3,18.5,66.7,0.1l241.9-242C332.483,215.767,346.583,211.067,360.583,212.967z
			 M307.883,193.067l-246.8,246.8c-5.4,5.4-14,5.4-19.4,0s-5.4-14,0-19.4l246.8-246.8c5.4-5.4,14-5.4,19.4,0
			C313.283,178.967,313.283,187.667,307.883,193.067z"/>
	</g>
</g>
<g>
</g>
<g>
</g>
<g>
</g>
<g>
</g>
<g>
</g>
<g>
</g>
<g>
</g>
<g>
</g>
<g>
</g>
<g>
</g>
<g>
</g>
<g>
</g>
<g>
</g>
<g>
</g>
<g>
</g>
</svg>
