<?xml version="1.0" encoding="utf-8"?>
<!-- Generator: Adobe Illustrator 26.5.0, SVG Export Plug-In . SVG Version: 6.00 Build 0)  -->
<svg version="1.1" id="图层_1" xmlns="http://www.w3.org/2000/svg" xmlns:xlink="http://www.w3.org/1999/xlink" x="0px" y="0px"
	 viewBox="0 0 24 24" style="enable-background:new 0 0 24 24;" xml:space="preserve">
<style type="text/css">
	.st0{fill:#00B050;}
	.st1{fill:#FFFFFF;}
</style>
<g id="_x23_00b050ff">
	<path class="st0" d="M4.7,0.2c1.8-0.4,3.9-0.1,5.4,1.1c1.7,1.3,2.7,3.4,2.5,5.5c-0.1,3.1-2.9,5.8-6,5.8c-2.2,0.1-4.3-1-5.5-2.8
		C0,8.2-0.3,6.2,0.3,4.4C0.9,2.4,2.7,0.7,4.7,0.2 M9.2,4C7.9,5.4,6.8,6.9,5.6,8.2c-0.7-0.6-1.3-1.4-2-1.9C3.2,6,2.7,6.8,3,7.1
		c0.7,0.7,1.4,1.4,2.1,2.1C5.3,9.4,5.7,9.8,6,9.4c1.4-1.5,2.6-3.1,3.9-4.6C10.4,4.3,9.6,3.6,9.2,4z"/>
	<path class="st0" d="M16.1,11.6c1.5-0.3,3.2-0.2,4.5,0.6c2.1,1.1,3.5,3.4,3.3,5.8c0,3.2-2.9,6-6,6c-2.2,0.1-4.3-1-5.5-2.8
		c-1.1-1.6-1.3-3.6-0.8-5.4C12.3,13.8,14.1,12.1,16.1,11.6 M20.6,15.4c-1.2,1.4-2.4,2.8-3.6,4.2c-0.7-0.7-1.4-1.5-2.2-2.1
		c-0.3,0.2-0.6,0.5-0.4,0.9c0.7,0.8,1.4,1.5,2.2,2.2c0.2,0.2,0.6,0.6,0.9,0.2c1.4-1.5,2.6-3.1,3.9-4.6C21.8,15.7,21,15,20.6,15.4z"
		/>
</g>
<g id="_x23_ffffffff">
	<path class="st1" d="M9.2,4c0.4-0.5,1.2,0.3,0.7,0.7C8.6,6.3,7.3,7.9,6,9.4c-0.3,0.4-0.7,0-0.9-0.2C4.4,8.5,3.7,7.8,3,7.1
		C2.7,6.8,3.2,6,3.6,6.3c0.8,0.5,1.3,1.3,2,1.9C6.8,6.9,7.9,5.4,9.2,4z"/>
	<path class="st1" d="M20.6,15.4c0.4-0.5,1.2,0.3,0.7,0.7c-1.3,1.5-2.6,3.1-3.9,4.6c-0.3,0.4-0.7,0-0.9-0.2
		c-0.7-0.7-1.5-1.4-2.2-2.2c-0.1-0.4,0.2-0.6,0.4-0.9c0.8,0.6,1.5,1.4,2.2,2.1C18.2,18.3,19.4,16.8,20.6,15.4z"/>
</g>
</svg>
