<?xml version="1.0" encoding="utf-8"?>
<!-- Generator: Adobe Illustrator 26.5.0, SVG Export Plug-In . SVG Version: 6.00 Build 0)  -->
<svg version="1.1" id="图层_1" xmlns="http://www.w3.org/2000/svg" xmlns:xlink="http://www.w3.org/1999/xlink" x="0px" y="0px"
	 viewBox="0 0 24 24" style="enable-background:new 0 0 24 24;" xml:space="preserve">
<style type="text/css">
	.st0{fill:#DB2E05;}
	.st1{fill:#FFFFFF;}
</style>
<g id="_x23_db2e05ff">
	<path class="st0" d="M9.6,0.2c3.1-0.7,6.5,0,9.1,1.8c2.4,1.6,4.2,4.2,4.9,7.1c0.8,3.2,0.2,6.7-1.7,9.4c-1.7,2.5-4.3,4.4-7.3,5.1
		c-3.2,0.8-6.8,0.1-9.5-1.7c-2.5-1.7-4.3-4.3-4.9-7.1C-0.5,11.6,0.2,8.1,2,5.4C3.7,2.7,6.5,0.8,9.6,0.2 M6.5,6.2
		c1.2,1.9,2.4,3.8,3.7,5.7c-1.2,2-2.6,3.9-3.9,5.8c1.1,0,2.2,0,3.3,0c0.9-1.2,1.6-2.6,2.5-3.8c0.8,1.3,1.6,2.6,2.4,3.8
		c1.1,0,2.2,0,3.2,0c-1.3-2-2.6-3.9-4-5.9c1.2-1.9,2.5-3.8,3.7-5.7c-1.1,0-2.1,0-3.2,0c-0.8,1.3-1.6,2.6-2.4,3.8
		c-0.7-1.3-1.5-2.6-2.3-3.8C8.6,6.2,7.5,6.2,6.5,6.2z"/>
</g>
<g id="_x23_ffffffff">
	<path class="st1" d="M6.5,6.2c1,0,2.1,0,3.1,0c0.8,1.2,1.6,2.5,2.3,3.8c0.8-1.2,1.6-2.5,2.4-3.8c1.1,0,2.1,0,3.2,0
		c-1.2,1.9-2.5,3.8-3.7,5.7c1.3,2,2.7,3.9,4,5.9c-1.1,0-2.2,0-3.2,0c-0.9-1.2-1.7-2.5-2.4-3.8c-0.9,1.2-1.6,2.6-2.5,3.8
		c-1.1,0-2.2,0-3.3,0c1.3-2,2.7-3.8,3.9-5.8C8.9,10.1,7.7,8.1,6.5,6.2z"/>
</g>
</svg>
