<?xml version="1.0" encoding="iso-8859-1"?>
<!-- Generator: Adobe Illustrator 19.0.0, SVG Export Plug-In . SVG Version: 6.00 Build 0)  -->
<svg version="1.1" id="Layer_1" xmlns="http://www.w3.org/2000/svg" xmlns:xlink="http://www.w3.org/1999/xlink" x="0px" y="0px"
	 viewBox="0 0 300 300" style="enable-background:new 0 0 300 300;" xml:space="preserve">
<g id="XMLID_21_">
	<path id="XMLID_22_" d="M275,0h-40h-55h-60H65H25c-8.284,0-15,6.716-15,15v40v70v40v120c0,8.284,6.716,15,15,15h95h60h95
		c8.284,0,15-6.716,15-15V165v-40V55V15C290,6.716,283.284,0,275,0z M105,270H40v-30h65V270z M105,210H40v-30h25h0.019H105V210z
		 M105,150H77.91c-5.191-18.286-19.624-32.712-37.91-37.904V67.904C58.285,62.711,72.711,48.285,77.904,30H105V150z M165,270h-30
		v-90h30V270z M165,150h-30V30h30V150z M260,270h-65v-30h65V270z M260,210h-65v-30h40h25V210z M260,112.096
		c-18.285,5.192-32.711,19.619-37.904,37.904H195V30h27.096c5.193,18.285,19.619,32.711,37.904,37.904V112.096z"/>
</g>
<g>
</g>
<g>
</g>
<g>
</g>
<g>
</g>
<g>
</g>
<g>
</g>
<g>
</g>
<g>
</g>
<g>
</g>
<g>
</g>
<g>
</g>
<g>
</g>
<g>
</g>
<g>
</g>
<g>
</g>
</svg>
