<?xml version="1.0" encoding="iso-8859-1"?>
<!-- Generator: Adobe Illustrator 19.0.0, SVG Export Plug-In . SVG Version: 6.00 Build 0)  -->
<svg version="1.1" id="Layer_1" xmlns="http://www.w3.org/2000/svg" xmlns:xlink="http://www.w3.org/1999/xlink" x="0px" y="0px"
	 viewBox="0 0 330 330" style="enable-background:new 0 0 330 330;" xml:space="preserve">
<g id="XMLID_16_">
	<path id="XMLID_17_" d="M315,0H180v150h150V15C330,6.716,323.284,0,315,0z M285,80h-70V50h70V80z"/>
	<path id="XMLID_20_" d="M180,330h135c8.284,0,15-6.716,15-15V180H180V330z M215,210h70v30h-70V210z"/>
	<path id="XMLID_23_" d="M0,315c0,8.284,6.716,15,15,15h135V180H0V315z M45,210h70v30H45V210z"/>
	<path id="XMLID_26_" d="M0,15v135h150V0H15C6.716,0,0,6.716,0,15z M45,50h70v30H45V50z"/>
</g>
<g>
</g>
<g>
</g>
<g>
</g>
<g>
</g>
<g>
</g>
<g>
</g>
<g>
</g>
<g>
</g>
<g>
</g>
<g>
</g>
<g>
</g>
<g>
</g>
<g>
</g>
<g>
</g>
<g>
</g>
</svg>
