<?xml version="1.0" encoding="iso-8859-1"?>
<!-- Generator: Adobe Illustrator 19.0.0, SVG Export Plug-In . SVG Version: 6.00 Build 0)  -->
<svg version="1.1" id="Layer_1" xmlns="http://www.w3.org/2000/svg" xmlns:xlink="http://www.w3.org/1999/xlink" x="0px" y="0px"
	 viewBox="0 0 330 330" style="enable-background:new 0 0 330 330;" xml:space="preserve">
<g id="XMLID_29_">
	<path id="XMLID_30_" d="M330,235c0-8.284-6.716-15-15-15h-15v-30H90v30H60V15c0-8.284-6.716-15-15-15H15C6.716,0,0,6.716,0,15
		s6.716,15,15,15h15v205c0,8.284,6.716,15,15,15h11.035C52.187,257.507,50,266,50,275c0,30.327,24.673,55,55,55s55-24.673,55-55
		c0-9-2.186-17.493-6.035-25h72.07c-3.849,7.507-6.035,16-6.035,25c0,30.327,24.673,55,55,55s55-24.673,55-55
		c0-9.888-2.636-19.165-7.222-27.192C327.103,245.176,330,240.433,330,235z M105,300c-13.785,0-25-11.215-25-25s11.215-25,25-25
		s25,11.215,25,25S118.785,300,105,300z M275,300c-13.785,0-25-11.215-25-25s11.215-25,25-25s25,11.215,25,25S288.785,300,275,300z"
		/>
	<rect id="XMLID_86_" x="90" y="130" width="210" height="30"/>
	<path id="XMLID_87_" d="M300,55c0-8.284-6.716-15-15-15H105c-8.284,0-15,6.716-15,15v45h210V55z"/>
</g>
<g>
</g>
<g>
</g>
<g>
</g>
<g>
</g>
<g>
</g>
<g>
</g>
<g>
</g>
<g>
</g>
<g>
</g>
<g>
</g>
<g>
</g>
<g>
</g>
<g>
</g>
<g>
</g>
<g>
</g>
</svg>
