<?xml version="1.0" encoding="iso-8859-1"?>
<!-- Generator: Adobe Illustrator 19.0.0, SVG Export Plug-In . SVG Version: 6.00 Build 0)  -->
<svg version="1.1" id="Layer_1" xmlns="http://www.w3.org/2000/svg" xmlns:xlink="http://www.w3.org/1999/xlink" x="0px" y="0px"
	 viewBox="0 0 330 330" style="enable-background:new 0 0 330 330;" xml:space="preserve">
<g id="XMLID_88_">
	<path id="XMLID_89_" d="M20,109.999h153.787l65.611,65.611C236.581,181.485,235,188.061,235,195s1.581,13.515,4.398,19.39
		L153.787,300H80c-8.284,0-15,6.716-15,15s6.716,15,15,15h160c8.284,0,15-6.716,15-15s-6.716-15-15-15h-43.787l64.398-64.398
		C266.485,238.419,273.061,240,280,240c24.812,0,45-20.187,45-45s-20.188-45-45-45c-6.939,0-13.515,1.581-19.389,4.398
		l-65.834-65.834C191.457,39.171,150.221,0,100,0C47.617,0,5,42.616,5,94.999C5,103.283,11.716,109.999,20,109.999z"/>
	<path id="XMLID_90_" d="M115,185v-30c0-8.284-6.716-15-15-15c-8.284,0-15,6.716-15,15v30c0,8.284,6.716,15,15,15
		C108.284,200,115,193.284,115,185z"/>
	<path id="XMLID_91_" d="M25.769,150.256l-10,30c-2.619,7.859,1.628,16.354,9.486,18.974c1.574,0.524,3.174,0.773,4.746,0.773
		c6.28,0,12.133-3.975,14.228-10.26l10-30c2.619-7.859-1.628-16.354-9.486-18.974C36.882,138.15,28.389,142.398,25.769,150.256z"/>
	<path id="XMLID_92_" d="M169.998,200.004c1.572,0,3.172-0.249,4.746-0.773c7.858-2.62,12.105-11.115,9.486-18.974l-10-30
		c-2.62-7.858-11.111-12.106-18.975-9.487c-7.858,2.62-12.105,11.115-9.486,18.974l10,30
		C157.865,196.029,163.717,200.004,169.998,200.004z"/>
</g>
<g>
</g>
<g>
</g>
<g>
</g>
<g>
</g>
<g>
</g>
<g>
</g>
<g>
</g>
<g>
</g>
<g>
</g>
<g>
</g>
<g>
</g>
<g>
</g>
<g>
</g>
<g>
</g>
<g>
</g>
</svg>
