<?xml version="1.0" encoding="iso-8859-1"?>
<!-- Generator: Adobe Illustrator 19.0.0, SVG Export Plug-In . SVG Version: 6.00 Build 0)  -->
<svg version="1.1" id="Layer_1" xmlns="http://www.w3.org/2000/svg" xmlns:xlink="http://www.w3.org/1999/xlink" x="0px" y="0px"
	 viewBox="0 0 330 330" style="enable-background:new 0 0 330 330;" xml:space="preserve">
<g id="XMLID_233_">
	<path id="XMLID_235_" d="M37.5,51.213V315c0,8.284,6.716,15,15,15s15-6.716,15-15V51.213l11.894,11.894
		C82.322,66.036,86.161,67.5,90,67.5c3.839,0,7.678-1.464,10.606-4.394c5.858-5.858,5.858-15.355,0-21.213L63.11,4.396
		c-0.351-0.35-0.72-0.682-1.104-0.997c-0.172-0.141-0.353-0.264-0.529-0.396c-0.214-0.161-0.424-0.327-0.647-0.477
		c-0.216-0.144-0.438-0.269-0.659-0.401c-0.199-0.119-0.395-0.244-0.599-0.354c-0.227-0.121-0.46-0.224-0.69-0.333
		c-0.213-0.1-0.422-0.206-0.639-0.297c-0.227-0.093-0.457-0.169-0.688-0.251c-0.232-0.084-0.461-0.172-0.697-0.245
		c-0.232-0.07-0.467-0.121-0.701-0.18c-0.24-0.06-0.479-0.127-0.723-0.176c-0.273-0.054-0.549-0.087-0.823-0.125
		c-0.21-0.03-0.415-0.07-0.628-0.091c-0.986-0.097-1.979-0.097-2.965,0C50.805,0.096,50.6,0.136,50.39,0.166
		c-0.274,0.039-0.55,0.071-0.823,0.125c-0.244,0.049-0.482,0.116-0.723,0.176c-0.234,0.059-0.469,0.11-0.701,0.18
		c-0.236,0.072-0.466,0.161-0.697,0.245c-0.23,0.082-0.461,0.158-0.688,0.251c-0.217,0.09-0.426,0.197-0.639,0.297
		c-0.23,0.109-0.464,0.212-0.69,0.333c-0.204,0.11-0.399,0.235-0.599,0.354c-0.221,0.132-0.443,0.257-0.659,0.401
		c-0.224,0.149-0.434,0.315-0.647,0.477c-0.177,0.132-0.357,0.255-0.529,0.396c-0.384,0.315-0.753,0.646-1.104,0.997L4.394,41.894
		c-5.858,5.858-5.858,15.355,0,21.213c5.857,5.858,15.355,5.858,21.213,0L37.5,51.213z"/>
	<path id="XMLID_236_" d="M304.394,266.894L292.5,278.787V15c0-8.284-6.716-15-15-15c-8.284,0-15,6.716-15,15v263.787
		l-11.894-11.893c-5.857-5.858-15.355-5.858-21.213,0c-5.858,5.858-5.858,15.355,0,21.213l37.497,37.498
		c0.351,0.35,0.72,0.682,1.104,0.997c0.17,0.141,0.352,0.263,0.527,0.395c0.215,0.162,0.426,0.329,0.65,0.478
		c0.213,0.143,0.435,0.266,0.653,0.397c0.201,0.12,0.398,0.247,0.605,0.357c0.225,0.12,0.454,0.221,0.683,0.329
		c0.215,0.102,0.427,0.209,0.647,0.301c0.223,0.092,0.449,0.166,0.676,0.247c0.236,0.085,0.469,0.175,0.709,0.248
		c0.227,0.068,0.455,0.119,0.684,0.176c0.246,0.063,0.49,0.131,0.741,0.181c0.263,0.052,0.526,0.083,0.791,0.121
		c0.22,0.031,0.436,0.073,0.659,0.095c0.492,0.048,0.986,0.075,1.481,0.075c0.494,0,0.988-0.026,1.48-0.075
		c0.223-0.022,0.439-0.064,0.659-0.095c0.265-0.038,0.528-0.069,0.791-0.121c0.251-0.05,0.495-0.119,0.741-0.181
		c0.229-0.057,0.457-0.107,0.684-0.176c0.24-0.073,0.473-0.163,0.709-0.248c0.227-0.081,0.453-0.155,0.676-0.247
		c0.221-0.092,0.433-0.199,0.647-0.301c0.229-0.107,0.458-0.209,0.683-0.329c0.207-0.111,0.403-0.237,0.604-0.357
		c0.219-0.131,0.44-0.254,0.653-0.397c0.225-0.15,0.436-0.317,0.65-0.478c0.176-0.132,0.357-0.254,0.527-0.395
		c0.384-0.315,0.753-0.647,1.103-0.997l37.497-37.498c5.858-5.858,5.858-15.355,0-21.213
		C319.749,261.035,310.251,261.035,304.394,266.894z"/>
	<path id="XMLID_237_" d="M159.317,243.532v7.658c0,4.398,3.959,7.977,8.825,7.977c4.174,0,8.824-3.276,8.824-7.977v-8.727
		c22.718-4.273,35.656-20.328,35.656-44.525c0-29.667-17.939-39.924-35.656-46.621v-44.833c7.026,0.985,11.529,3.28,14.962,5.031
		c2.562,1.305,4.584,2.336,6.833,2.336c6.249,0,10.085-6.852,10.085-11.765c0-10.261-17.849-15.29-31.88-16.534v-6.291
		c0-4.71-4.65-7.991-8.824-7.991c-4.866,0-8.825,3.585-8.825,7.991v6.815c-24.318,2.9-38.168,17.216-38.168,39.714
		c0,28.336,19.984,36.064,38.168,42.475v53.945c-13.431-1.374-19.473-7.66-23.595-11.947c-2.575-2.68-4.801-4.994-8.055-4.994
		c-5.7,0-10.29,6.431-10.29,11.756C117.377,226.981,133.946,241.913,159.317,243.532z M176.342,175.03
		c9.493,4.915,14.859,11.265,14.859,24.169c0,11.672-4.871,18.864-14.859,21.861V175.03z M142.36,124.538
		c0-9.807,5.844-15.753,17.385-17.718v38.383C149.328,141.077,142.36,136.207,142.36,124.538z"/>
</g>
<g>
</g>
<g>
</g>
<g>
</g>
<g>
</g>
<g>
</g>
<g>
</g>
<g>
</g>
<g>
</g>
<g>
</g>
<g>
</g>
<g>
</g>
<g>
</g>
<g>
</g>
<g>
</g>
<g>
</g>
</svg>
