<?xml version="1.0" encoding="iso-8859-1"?>
<!-- Generator: Adobe Illustrator 19.0.0, SVG Export Plug-In . SVG Version: 6.00 Build 0)  -->
<svg version="1.1" id="Layer_1" xmlns="http://www.w3.org/2000/svg" xmlns:xlink="http://www.w3.org/1999/xlink" x="0px" y="0px"
	 viewBox="0 0 270 270" style="enable-background:new 0 0 270 270;" xml:space="preserve">
<g id="XMLID_104_">
	<path id="XMLID_105_" d="M130.024,129.479c-11.732,2.415-11.732,10.021-11.732,12.699c0,7.659,3.665,11.301,11.732,14.721V129.479z
		"/>
	<path id="XMLID_106_" d="M45,268.715h180c24.814,0,45-20.187,45-45c0-24.813-20.186-45-45-45c-8.284,0-15-6.716-15-15v-85H60v85
		c0,8.284-6.716,15-15,15c-24.813,0-45,20.187-45,45C0,248.528,20.187,268.715,45,268.715z M100.024,143.152
		c0-17.756,10.753-29.137,29.667-31.657v-4.511c0-3.916,3.477-7.103,7.751-7.103c3.666,0,7.75,2.917,7.75,7.103v4.083
		c11.115,1.134,24.78,5.303,24.78,13.66c0,4.19-3.321,10.035-8.73,10.035c-1.962,0-3.7-0.887-5.714-1.913
		c-2.439-1.243-5.587-2.848-10.336-3.663v33.179c10.934,4.105,27.716,12.108,27.716,36.867c0,19.03-10.046,31.741-27.716,35.344
		v6.049c0,4.179-4.084,7.091-7.75,7.091c-4.273,0-7.751-3.181-7.751-7.091v-5.119c-20.028-1.538-32.6-13.272-32.6-21.436
		c0-4.542,3.966-10.029,8.89-10.029c2.909,0,4.849,2.018,6.903,4.155c3.007,3.128,7.368,7.664,16.807,8.901v-40.299
		C116.054,171.967,100.024,165.452,100.024,143.152z"/>
	<path id="XMLID_109_" d="M154.475,200.212c0-8.97-3.508-13.699-9.768-17.284v33.034
		C151.27,213.542,154.475,208.352,154.475,200.212z"/>
	<path id="XMLID_110_" d="M240.21,150.268c1.083,0.224,2.156,0.475,3.222,0.746c0.143,0.036,0.287,0.069,0.429,0.106
		c1.043,0.271,2.075,0.568,3.099,0.882c0.197,0.06,0.393,0.12,0.589,0.182c1.005,0.317,2,0.654,2.985,1.013
		c0.188,0.068,0.373,0.139,0.56,0.208c1.006,0.374,2.004,0.765,2.989,1.181c0.103,0.043,0.204,0.09,0.308,0.135
		c0.953,0.407,1.896,0.835,2.827,1.28c0.127,0.061,0.256,0.118,0.383,0.18c0.947,0.46,1.882,0.942,2.807,1.44
		c0.184,0.098,0.365,0.195,0.547,0.295c0.904,0.496,1.798,1.01,2.679,1.542c0.175,0.105,0.348,0.212,0.521,0.319
		c0.897,0.551,1.784,1.117,2.655,1.704c0.107,0.071,0.21,0.145,0.315,0.218c0.865,0.589,1.719,1.196,2.559,1.82
		c0.073,0.055,0.148,0.108,0.223,0.163c0.031,0.024,0.065,0.046,0.096,0.07V43.715c0-19.556-12.539-36.239-30-42.43v148.936
		c0.02,0.004,0.04,0.009,0.06,0.013C240.109,150.245,240.16,150.257,240.21,150.268z"/>
	<path id="XMLID_138_" d="M0.319,163.517c0.839-0.624,1.691-1.23,2.558-1.82c0.105-0.072,0.209-0.146,0.315-0.218
		c0.871-0.587,1.758-1.152,2.654-1.704c0.174-0.107,0.348-0.214,0.522-0.32c0.881-0.532,1.773-1.046,2.677-1.542
		c0.182-0.1,0.364-0.197,0.548-0.295c0.925-0.497,1.859-0.98,2.807-1.44c0.127-0.062,0.256-0.119,0.383-0.18
		c0.932-0.445,1.874-0.873,2.827-1.28c0.103-0.044,0.205-0.091,0.308-0.135c0.985-0.416,1.983-0.806,2.989-1.181
		c0.187-0.069,0.372-0.14,0.56-0.208c0.985-0.358,1.98-0.695,2.984-1.012c0.196-0.062,0.393-0.122,0.59-0.183
		c1.024-0.314,2.056-0.611,3.099-0.882c0.142-0.037,0.286-0.07,0.429-0.106c1.065-0.27,2.139-0.521,3.222-0.746
		c0.05-0.01,0.1-0.022,0.15-0.033c0.02-0.004,0.04-0.009,0.06-0.013V1.285C12.539,7.476,0,24.159,0,43.715v120.036
		c0.031-0.024,0.064-0.046,0.096-0.07C0.17,163.625,0.245,163.572,0.319,163.517z"/>
</g>
<g>
</g>
<g>
</g>
<g>
</g>
<g>
</g>
<g>
</g>
<g>
</g>
<g>
</g>
<g>
</g>
<g>
</g>
<g>
</g>
<g>
</g>
<g>
</g>
<g>
</g>
<g>
</g>
<g>
</g>
</svg>
