<?xml version="1.0" encoding="iso-8859-1"?>
<!-- Generator: Adobe Illustrator 19.0.0, SVG Export Plug-In . SVG Version: 6.00 Build 0)  -->
<svg version="1.1" id="Layer_1" xmlns="http://www.w3.org/2000/svg" xmlns:xlink="http://www.w3.org/1999/xlink" x="0px" y="0px"
	 viewBox="0 0 330 330" style="enable-background:new 0 0 330 330;" xml:space="preserve">
<g id="XMLID_226_">
	<path id="XMLID_227_" d="M315,262.5H51.213l11.893-11.894c5.858-5.858,5.858-15.355,0-21.213c-5.857-5.858-15.355-5.858-21.213,0
		L4.397,266.891c-0.352,0.351-0.684,0.719-0.998,1.103c-0.137,0.167-0.256,0.344-0.385,0.515c-0.165,0.22-0.335,0.435-0.488,0.664
		c-0.14,0.209-0.261,0.426-0.389,0.641c-0.123,0.205-0.252,0.406-0.365,0.618c-0.117,0.219-0.217,0.445-0.322,0.669
		c-0.104,0.22-0.214,0.436-0.307,0.662c-0.091,0.218-0.163,0.44-0.242,0.661c-0.087,0.241-0.18,0.478-0.254,0.724
		c-0.066,0.221-0.115,0.446-0.172,0.67c-0.063,0.25-0.134,0.499-0.184,0.754c-0.051,0.256-0.081,0.515-0.119,0.773
		c-0.032,0.226-0.074,0.448-0.098,0.677c-0.047,0.477-0.07,0.955-0.072,1.434c0,0.015-0.002,0.029-0.002,0.044
		c0,0.015,0.002,0.029,0.002,0.044c0.002,0.479,0.025,0.958,0.072,1.434c0.024,0.229,0.065,0.451,0.098,0.677
		c0.038,0.258,0.068,0.517,0.119,0.773c0.05,0.255,0.12,0.503,0.184,0.754c0.057,0.224,0.105,0.449,0.172,0.67
		c0.074,0.246,0.167,0.483,0.254,0.724c0.079,0.221,0.151,0.443,0.242,0.661c0.093,0.226,0.202,0.442,0.307,0.662
		c0.105,0.224,0.205,0.45,0.322,0.669c0.113,0.212,0.242,0.413,0.365,0.618c0.128,0.214,0.249,0.432,0.389,0.641
		c0.153,0.229,0.323,0.444,0.488,0.664c0.129,0.171,0.248,0.348,0.385,0.515c0.315,0.384,0.647,0.752,0.998,1.103l37.497,37.497
		C44.822,328.536,48.661,330,52.5,330c3.839,0,7.678-1.464,10.606-4.394c5.858-5.858,5.858-15.355,0-21.213L51.213,292.5H315
		c8.284,0,15-6.716,15-15C330,269.216,323.284,262.5,315,262.5z"/>
	<path id="XMLID_228_" d="M329.926,51.021c-0.022-0.223-0.065-0.439-0.096-0.659c-0.037-0.265-0.068-0.53-0.121-0.793
		c-0.049-0.249-0.117-0.489-0.179-0.733c-0.058-0.231-0.108-0.463-0.178-0.691c-0.072-0.237-0.161-0.466-0.244-0.697
		c-0.082-0.23-0.158-0.462-0.252-0.689c-0.089-0.214-0.194-0.42-0.292-0.629c-0.11-0.235-0.215-0.472-0.338-0.702
		c-0.107-0.198-0.228-0.386-0.342-0.578c-0.136-0.228-0.266-0.458-0.414-0.681c-0.139-0.207-0.293-0.402-0.441-0.602
		c-0.145-0.193-0.278-0.39-0.432-0.577c-0.275-0.335-0.57-0.655-0.873-0.965c-0.041-0.042-0.076-0.089-0.118-0.131l-37.5-37.5
		c-5.857-5.858-15.355-5.858-21.213,0c-5.858,5.858-5.858,15.355,0,21.213l11.895,11.895H15c-8.284,0-15,6.716-15,15s6.716,15,15,15
		h263.786l-11.892,11.893c-5.858,5.858-5.858,15.355,0,21.213c2.929,2.929,6.767,4.394,10.606,4.394
		c3.839,0,7.678-1.464,10.606-4.394l37.487-37.487c0.355-0.355,0.693-0.729,1.012-1.119c0.121-0.147,0.225-0.302,0.338-0.452
		c0.182-0.24,0.367-0.476,0.535-0.727c0.131-0.196,0.243-0.399,0.363-0.6c0.132-0.219,0.27-0.433,0.39-0.659
		c0.112-0.21,0.206-0.425,0.308-0.639c0.109-0.229,0.223-0.455,0.32-0.69c0.087-0.21,0.156-0.425,0.234-0.638
		c0.089-0.248,0.184-0.493,0.26-0.747c0.065-0.214,0.112-0.431,0.167-0.647c0.065-0.258,0.138-0.512,0.19-0.775
		c0.05-0.25,0.078-0.502,0.115-0.754c0.034-0.232,0.077-0.46,0.101-0.695c0.046-0.471,0.069-0.943,0.071-1.416
		c0-0.021,0.003-0.041,0.003-0.061c0-0.009-0.002-0.018-0.002-0.027C329.998,51.989,329.973,51.504,329.926,51.021z"/>
	<path id="XMLID_229_" d="M142.884,198.494c-2.054-2.136-3.994-4.154-6.902-4.154c-4.924,0-8.889,5.487-8.889,10.029
		c0,8.164,12.57,19.899,32.599,21.436v5.119c0,3.91,3.477,7.091,7.751,7.091c3.665,0,7.75-2.912,7.75-7.091v-6.049
		c17.669-3.603,27.715-16.313,27.715-35.344c0-24.759-16.782-32.762-27.715-36.867v-33.179c4.749,0.815,7.896,2.419,10.335,3.662
		c2.014,1.027,3.754,1.914,5.716,1.914c5.409,0,8.73-5.845,8.73-10.035c0-8.357-13.666-12.525-24.781-13.66v-4.082
		c0-4.186-4.085-7.103-7.75-7.103c-4.274,0-7.751,3.186-7.751,7.103v4.511c-18.914,2.52-29.667,13.901-29.667,31.657
		c0,22.298,16.03,28.815,29.667,33.645v40.299C150.252,206.158,145.891,201.622,142.884,198.494z M174.707,173.228
		c6.26,3.585,9.769,8.314,9.769,17.284c0,8.14-3.206,13.331-9.769,15.749V173.228z M148.292,132.478
		c0-2.678,0.001-10.284,11.732-12.699v27.42C151.956,143.779,148.292,140.137,148.292,132.478z"/>
</g>
<g>
</g>
<g>
</g>
<g>
</g>
<g>
</g>
<g>
</g>
<g>
</g>
<g>
</g>
<g>
</g>
<g>
</g>
<g>
</g>
<g>
</g>
<g>
</g>
<g>
</g>
<g>
</g>
<g>
</g>
</svg>
