<?xml version="1.0" encoding="iso-8859-1"?>
<!-- Generator: Adobe Illustrator 19.0.0, SVG Export Plug-In . SVG Version: 6.00 Build 0)  -->
<svg version="1.1" id="Layer_1" xmlns="http://www.w3.org/2000/svg" xmlns:xlink="http://www.w3.org/1999/xlink" x="0px" y="0px"
	 viewBox="0 0 330.001 330.001" style="enable-background:new 0 0 330.001 330.001;" xml:space="preserve">
<g id="XMLID_29_">
	<polygon id="XMLID_30_" points="72,330.001 114,330.001 114,105.986 72,151.302 	"/>
	<polygon id="XMLID_31_" points="144,330.001 186,330.001 186,121.086 144,93.363 	"/>
	<polygon id="XMLID_71_" points="216,330.001 258,330.001 258,54.636 216,100.136 	"/>
	<path id="XMLID_85_" d="M0,234.868v80.133c0,8.284,6.716,15,15,15h27V183.67L3.998,224.671C1.428,227.445,0,231.087,0,234.868z"/>
	<path id="XMLID_86_" d="M320.462,1.031c-5.753-2.25-12.294-0.742-16.483,3.796L288,22.136v307.864h27c8.284,0,15-6.716,15-15
		v-223.7v-76.3C330,8.824,326.215,3.28,320.462,1.031z"/>
</g>
<g>
</g>
<g>
</g>
<g>
</g>
<g>
</g>
<g>
</g>
<g>
</g>
<g>
</g>
<g>
</g>
<g>
</g>
<g>
</g>
<g>
</g>
<g>
</g>
<g>
</g>
<g>
</g>
<g>
</g>
</svg>
