<?xml version="1.0" encoding="iso-8859-1"?>
<!-- Generator: Adobe Illustrator 19.0.0, SVG Export Plug-In . SVG Version: 6.00 Build 0)  -->
<svg version="1.1" id="Layer_1" xmlns="http://www.w3.org/2000/svg" xmlns:xlink="http://www.w3.org/1999/xlink" x="0px" y="0px"
	 viewBox="0 0 320 320" style="enable-background:new 0 0 320 320;" xml:space="preserve">
<g id="XMLID_9_">
	<path id="XMLID_10_" d="M160,0C91.075,0,35,56.074,35,125c0,39.627,18.545,76.425,50,100.005h30h30V170h-15
		c-8.284,0-15-6.716-15-15s6.716-15,15-15h60c8.284,0,15,6.716,15,15s-6.716,15-15,15h-15v55.005h30h30
		c31.455-23.58,50-60.378,50-100.005C285,56.074,228.925,0,160,0z"/>
	<path id="XMLID_11_" d="M85,305c0,8.284,6.716,15,15,15h120c8.284,0,15-6.716,15-15v-49.995H85V305z"/>
</g>
<g>
</g>
<g>
</g>
<g>
</g>
<g>
</g>
<g>
</g>
<g>
</g>
<g>
</g>
<g>
</g>
<g>
</g>
<g>
</g>
<g>
</g>
<g>
</g>
<g>
</g>
<g>
</g>
<g>
</g>
</svg>
