<?xml version="1.0" encoding="iso-8859-1"?>
<!-- Generator: Adobe Illustrator 19.0.0, SVG Export Plug-In . SVG Version: 6.00 Build 0)  -->
<svg version="1.1" id="Layer_1" xmlns="http://www.w3.org/2000/svg" xmlns:xlink="http://www.w3.org/1999/xlink" x="0px" y="0px"
	 viewBox="0 0 394.071 394.071" style="enable-background:new 0 0 394.071 394.071;" xml:space="preserve">
<g id="XMLID_12_">
	<path id="XMLID_13_" d="M347.036,0h-57.143H104.178H47.036c-8.285,0-15,6.716-15,15v57.143v100v57.143c0,8.284,6.715,15,15,15h15
		v-5.001c0-12.02,4.681-23.32,13.184-31.822c8.5-8.497,19.799-13.177,31.817-13.177c1.047,0,2.086,0.048,3.12,0.119
		c-9.98-17.986-27.422-31.284-48.121-35.68v-73.16C89.797,79.668,111.704,57.762,117.6,30h158.872
		c5.896,27.762,27.802,49.668,55.564,55.563v73.158c-27.762,5.895-49.668,27.801-55.564,55.563H144.467
		c4.922,7.337,7.567,15.965,7.567,25v5h137.857h0.001h12.142h45.001c8.284,0,15-6.716,15-15v-57.143v-100V15
		C362.036,6.716,355.32,0,347.036,0z"/>
	<path id="XMLID_14_" d="M197.036,165.26c30.486,0,54.367-18.939,54.367-43.117c0-24.18-23.881-43.12-54.367-43.12
		s-54.365,18.94-54.365,43.12C142.67,146.32,166.549,165.26,197.036,165.26z"/>
	<path id="XMLID_15_" d="M152.035,274.285v1.503c34.39,6.975,60.357,37.437,60.357,73.854c0,8.284-6.716,15-15,15
		c-8.284,0-15-6.716-15-15c0-25.01-20.348-45.357-45.357-45.357c-8.284,0-15-6.716-15-15v-45v-5c0-4.008-1.56-7.774-4.393-10.607
		c-2.833-2.833-6.6-4.393-10.605-4.393c-4.008,0-7.774,1.561-10.608,4.394c-2.833,2.833-4.393,6.6-4.393,10.605v5.001v74.78
		c0,28.272,11.423,55.303,31.522,75.006l146.958-0.002c20.095-19.703,31.518-46.735,31.518-75.004v-44.78h-12.143H152.035z"/>
</g>
<g>
</g>
<g>
</g>
<g>
</g>
<g>
</g>
<g>
</g>
<g>
</g>
<g>
</g>
<g>
</g>
<g>
</g>
<g>
</g>
<g>
</g>
<g>
</g>
<g>
</g>
<g>
</g>
<g>
</g>
</svg>
