<?xml version="1.0" encoding="iso-8859-1"?>
<!-- Generator: Adobe Illustrator 19.0.0, SVG Export Plug-In . SVG Version: 6.00 Build 0)  -->
<svg version="1.1" id="Layer_1" xmlns="http://www.w3.org/2000/svg" xmlns:xlink="http://www.w3.org/1999/xlink" x="0px" y="0px"
	 viewBox="0 0 330 330" style="enable-background:new 0 0 330 330;" xml:space="preserve">
<g id="XMLID_93_">
	<path id="XMLID_102_" d="M235,250c8.284,0,15-6.716,15-15v-45h25c8.284,0,15-6.716,15-15s-6.716-15-15-15h-33.008l17.893-143.14
		c0.533-4.269-0.792-8.562-3.64-11.788C253.398,1.848,249.303,0,245,0H85c-4.303,0-8.398,1.848-11.245,5.073
		c-2.848,3.225-4.173,7.518-3.64,11.788L88.008,160H55c-8.284,0-15,6.716-15,15s6.716,15,15,15h25v45c0,8.284,6.716,15,15,15h55v30
		H85c-8.284,0-15,6.716-15,15v20c0,8.284,6.716,15,15,15s15-6.716,15-15v-5h50v5c0,8.284,6.716,15,15,15c8.284,0,15-6.716,15-15v-5
		h50v5c0,8.284,6.716,15,15,15c8.284,0,15-6.716,15-15v-20c0-8.284-6.716-15-15-15h-65v-30H235z"/>
</g>
<g>
</g>
<g>
</g>
<g>
</g>
<g>
</g>
<g>
</g>
<g>
</g>
<g>
</g>
<g>
</g>
<g>
</g>
<g>
</g>
<g>
</g>
<g>
</g>
<g>
</g>
<g>
</g>
<g>
</g>
</svg>
