<?xml version="1.0" encoding="iso-8859-1"?>
<!-- Generator: Adobe Illustrator 19.0.0, SVG Export Plug-In . SVG Version: 6.00 Build 0)  -->
<svg version="1.1" id="Layer_1" xmlns="http://www.w3.org/2000/svg" xmlns:xlink="http://www.w3.org/1999/xlink" x="0px" y="0px"
	 viewBox="0 0 310 310" style="enable-background:new 0 0 310 310;" xml:space="preserve">
<g id="XMLID_224_">
	<path id="XMLID_225_" d="M155,0c-8.285,0-15,6.716-15,15v15H45H25c-8.285,0-15,6.716-15,15s6.715,15,15,15h5v145
		c0,8.284,6.715,15,15,15h95v60h-35c-8.285,0-15,6.716-15,15s6.715,15,15,15h100c8.284,0,15-6.716,15-15s-6.716-15-15-15h-35v-60h95
		c8.284,0,15-6.716,15-15V60h5c8.284,0,15-6.716,15-15s-6.716-15-15-15h-20h-95V15C170,6.716,163.284,0,155,0z"/>
</g>
<g>
</g>
<g>
</g>
<g>
</g>
<g>
</g>
<g>
</g>
<g>
</g>
<g>
</g>
<g>
</g>
<g>
</g>
<g>
</g>
<g>
</g>
<g>
</g>
<g>
</g>
<g>
</g>
<g>
</g>
</svg>
