<?xml version="1.0" encoding="iso-8859-1"?>
<!-- Generator: Adobe Illustrator 19.0.0, SVG Export Plug-In . SVG Version: 6.00 Build 0)  -->
<svg version="1.1" id="Layer_1" xmlns="http://www.w3.org/2000/svg" xmlns:xlink="http://www.w3.org/1999/xlink" x="0px" y="0px"
	 viewBox="0 0 330.02 330.02" style="enable-background:new 0 0 330.02 330.02;" xml:space="preserve">
<g id="XMLID_232_">
	<path id="XMLID_233_" d="M178.416,8.302C175.876,3.22,170.682,0.01,165,0.01c-5.682,0-10.876,3.21-13.416,8.292L100.73,110.01
		H229.27L178.416,8.302z"/>
	<path id="XMLID_235_" d="M15,330.01h300c0.008,0,0.016,0,0.02,0c8.285,0,15-6.716,15-15c0-2.691-0.709-5.218-1.95-7.402
		l-33.8-67.598H35.73L1.584,308.302c-2.325,4.649-2.077,10.172,0.656,14.594C4.974,327.318,9.802,330.01,15,330.01z"/>
	<polygon id="XMLID_236_" points="244.27,140.01 85.73,140.01 50.73,210.01 279.27,210.01 	"/>
</g>
<g>
</g>
<g>
</g>
<g>
</g>
<g>
</g>
<g>
</g>
<g>
</g>
<g>
</g>
<g>
</g>
<g>
</g>
<g>
</g>
<g>
</g>
<g>
</g>
<g>
</g>
<g>
</g>
<g>
</g>
</svg>
