<?xml version="1.0" encoding="iso-8859-1"?>
<!-- Generator: Adobe Illustrator 19.0.0, SVG Export Plug-In . SVG Version: 6.00 Build 0)  -->
<svg version="1.1" id="Layer_1" xmlns="http://www.w3.org/2000/svg" xmlns:xlink="http://www.w3.org/1999/xlink" x="0px" y="0px"
	 viewBox="0 0 370 370" style="enable-background:new 0 0 370 370;" xml:space="preserve">
<g id="XMLID_2_">
	<path id="XMLID_4_" d="M355,15H195c-8.284,0-15,6.716-15,15v310c0,8.284,6.716,15,15,15h160c8.284,0,15-6.716,15-15V30
		C370,21.716,363.284,15,355,15z M265.609,195.609C262.82,198.4,258.949,200,255,200c-3.95,0-7.811-1.6-10.61-4.391
		c-2.79-2.799-4.39-6.66-4.39-10.609c0-3.95,1.6-7.82,4.39-10.61c2.8-2.79,6.66-4.39,10.61-4.39c3.949,0,7.82,1.6,10.609,4.39
		C268.4,177.18,270,181.05,270,185C270,188.949,268.4,192.811,265.609,195.609z"/>
	<path id="XMLID_7_" d="M30,60c0,24.813,20.187,45,45,45s45-20.187,45-45c0-24.813-20.188-45-45-45S30,35.188,30,60z"/>
	<path id="XMLID_8_" d="M75,135c-41.356,0-75,33.645-75,75v50c0,8.284,6.716,15,15,15h15v65c0,8.284,6.716,15,15,15h60
		c8.284,0,15-6.716,15-15v-65h15c8.284,0,15-6.716,15-15v-50C150,168.645,116.355,135,75,135z"/>
</g>
<g>
</g>
<g>
</g>
<g>
</g>
<g>
</g>
<g>
</g>
<g>
</g>
<g>
</g>
<g>
</g>
<g>
</g>
<g>
</g>
<g>
</g>
<g>
</g>
<g>
</g>
<g>
</g>
<g>
</g>
</svg>
