<?xml version="1.0" encoding="iso-8859-1"?>
<!-- Generator: Adobe Illustrator 19.0.0, SVG Export Plug-In . SVG Version: 6.00 Build 0)  -->
<svg version="1.1" id="Layer_1" xmlns="http://www.w3.org/2000/svg" xmlns:xlink="http://www.w3.org/1999/xlink" x="0px" y="0px"
	 viewBox="0 0 330.012 330.012" style="enable-background:new 0 0 330.012 330.012;" xml:space="preserve">
<g id="XMLID_11_">
	<path id="XMLID_12_" d="M49.377,179.416l0.002,0.001l-23.88,23.878c-2.813,2.813-4.394,6.629-4.393,10.608
		c-0.001,3.978,1.579,7.792,4.393,10.606l79.999,80c2.813,2.813,6.628,4.394,10.606,4.394s7.794-1.581,10.607-4.394l23.881-23.881
		L49.379,179.415L49.377,179.416z"/>
	<path id="XMLID_13_" d="M98.763,60.49c-5.144-1.332-10.612,0.155-14.37,3.914l-80,80c-3.805,3.805-5.279,9.357-3.865,14.548
		c1.414,5.191,5.5,9.229,10.708,10.578l4.447,1.153L120.295,66.072L98.763,60.49z"/>
	<path id="XMLID_14_" d="M315.721,0.141c-3.371-0.189-83.068-3.997-131.434,44.368l-30.297,30.297l-0.002-0.001l-83.395,83.395
		l101.214,101.214l94.335-94.336l0.001,0.001l19.357-19.357c48.365-48.365,44.558-128.061,44.371-131.431
		C329.451,6.658,323.355,0.561,315.721,0.141z"/>
	<path id="XMLID_15_" d="M263.937,209.712L159.325,314.324l1.153,4.449c1.35,5.21,5.387,9.296,10.58,10.71
		c1.301,0.354,2.625,0.528,3.939,0.528c3.926,0,7.758-1.544,10.607-4.395l79.998-80c3.759-3.759,5.247-9.225,3.914-14.37
		L263.937,209.712z"/>
</g>
<g>
</g>
<g>
</g>
<g>
</g>
<g>
</g>
<g>
</g>
<g>
</g>
<g>
</g>
<g>
</g>
<g>
</g>
<g>
</g>
<g>
</g>
<g>
</g>
<g>
</g>
<g>
</g>
<g>
</g>
</svg>
