<?xml version="1.0" encoding="iso-8859-1"?>
<!-- Generator: Adobe Illustrator 19.0.0, SVG Export Plug-In . SVG Version: 6.00 Build 0)  -->
<svg version="1.1" id="Layer_1" xmlns="http://www.w3.org/2000/svg" xmlns:xlink="http://www.w3.org/1999/xlink" x="0px" y="0px"
	 viewBox="0 0 330 330" style="enable-background:new 0 0 330 330;" xml:space="preserve">
<g id="XMLID_338_">
	<path id="XMLID_340_" d="M15,180c-8.284,0-15,6.716-15,15s6.716,15,15,15h15v75c0,8.284,6.716,15,15,15h35v15
		c0,8.284,6.716,15,15,15s15-6.716,15-15v-15h140v15c0,8.284,6.716,15,15,15s15-6.716,15-15v-15h35c8.284,0,15-6.716,15-15V15
		c0-8.284-6.716-15-15-15H45c-8.284,0-15,6.716-15,15v75H15c-8.284,0-15,6.716-15,15s6.716,15,15,15h15v60H15z M90,75
		c0-8.284,6.716-15,15-15h150c8.284,0,15,6.716,15,15v150c0,8.284-6.716,15-15,15H105c-8.284,0-15-6.716-15-15V75z"/>
	<path id="XMLID_350_" d="M240,90H120v120h120V90z M180,175.049c-13.834,0-25.049-11.215-25.049-25.049s11.215-25.049,25.049-25.049
		s25.049,11.215,25.049,25.049S193.834,175.049,180,175.049z"/>
</g>
<g>
</g>
<g>
</g>
<g>
</g>
<g>
</g>
<g>
</g>
<g>
</g>
<g>
</g>
<g>
</g>
<g>
</g>
<g>
</g>
<g>
</g>
<g>
</g>
<g>
</g>
<g>
</g>
<g>
</g>
</svg>
