<?xml version="1.0" encoding="iso-8859-1"?>
<!-- Generator: Adobe Illustrator 19.0.0, SVG Export Plug-In . SVG Version: 6.00 Build 0)  -->
<svg version="1.1" id="Layer_1" xmlns="http://www.w3.org/2000/svg" xmlns:xlink="http://www.w3.org/1999/xlink" x="0px" y="0px"
	 viewBox="0 0 330 330" style="enable-background:new 0 0 330 330;" xml:space="preserve">
<g id="XMLID_340_">
	<path id="XMLID_341_" d="M77.623,207.374c24.813,0,45-20.187,45-45s-20.187-45-45-45c-24.813,0-45,20.187-45,45
		S52.81,207.374,77.623,207.374z"/>
	<path id="XMLID_348_" d="M15,329.996h125.245c8.284,0,15-6.716,15-15c0-42.801-34.821-77.622-77.622-77.622
		C34.821,237.374,0,272.195,0,314.996C0,323.28,6.716,329.996,15,329.996z"/>
	<path id="XMLID_350_" d="M207.377,162.374c0,24.813,20.187,45,45,45c24.813,0,45-20.187,45-45s-20.187-45-45-45
		C227.564,117.374,207.377,137.561,207.377,162.374z"/>
	<path id="XMLID_351_" d="M174.755,314.996c0,8.284,6.716,15,15,15H315c8.284,0,15-6.716,15-15
		c0-42.801-34.821-77.622-77.623-77.622C209.576,237.374,174.755,272.195,174.755,314.996z"/>
	<path id="XMLID_352_" d="M77.623,89.996c8.284,0,15-6.716,15-15v-15h144.754v15c0,8.284,6.716,15,15,15c8.284,0,15-6.716,15-15v-30
		c0-8.284-6.716-15-15-15H180V15.004c0-8.284-6.716-15-15-15s-15,6.716-15,15v14.992H77.623c-8.284,0-15,6.716-15,15v30
		C62.623,83.28,69.339,89.996,77.623,89.996z"/>
</g>
<g>
</g>
<g>
</g>
<g>
</g>
<g>
</g>
<g>
</g>
<g>
</g>
<g>
</g>
<g>
</g>
<g>
</g>
<g>
</g>
<g>
</g>
<g>
</g>
<g>
</g>
<g>
</g>
<g>
</g>
</svg>
