<?xml version="1.0" encoding="iso-8859-1"?>
<!-- Generator: Adobe Illustrator 19.0.0, SVG Export Plug-In . SVG Version: 6.00 Build 0)  -->
<svg version="1.1" id="Layer_1" xmlns="http://www.w3.org/2000/svg" xmlns:xlink="http://www.w3.org/1999/xlink" x="0px" y="0px"
	 viewBox="0 0 511.999 511.999" style="enable-background:new 0 0 511.999 511.999;" xml:space="preserve">
<polygon style="fill:#ECF0F1;" points="348.798,146.144 348.798,305.376 230.002,305.376 204.763,286.962 22.751,286.962 
	22.751,146.144 "/>
<polygon style="fill:#356272;" points="348.798,305.376 348.798,346.538 22.751,346.538 22.751,286.962 204.763,286.962 
	230.002,305.376 "/>
<polygon style="fill:#E74C3C;" points="487.083,277.569 487.083,346.538 348.798,346.538 348.798,256.988 387.427,256.988 
	414.149,277.569 "/>
<polygon style="fill:#3498DB;" points="487.083,273.963 487.083,277.569 414.149,277.569 387.427,256.988 348.798,256.988 
	348.798,195.971 445.562,195.971 "/>
<g>
	<circle style="fill:#ECF0F1;" cx="88.639" cy="357.374" r="35.204"/>
	<circle style="fill:#ECF0F1;" cx="159.048" cy="357.374" r="35.204"/>
	<circle style="fill:#ECF0F1;" cx="427.686" cy="357.374" r="35.204"/>
</g>
<g>
	<path style="fill:#231F20;" d="M501.168,335.706h-3.253v-61.743c0-1.775-0.435-3.523-1.271-5.09l-41.52-77.991
		c-1.88-3.533-5.558-5.742-9.562-5.742h-85.931l-0.004-54.883h21.664c5.982,0,10.832-4.85,10.832-10.832
		c0-5.983-4.851-10.832-10.832-10.832h-32.496c-5.982,0-10.832,4.85-10.832,10.832v15.888H22.751
		c-5.983,0-10.832,4.85-10.832,10.832v129.986h-1.086C4.85,276.129,0,280.979,0,286.962c0,5.983,4.85,10.832,10.832,10.832h1.086
		v48.745c0,5.983,4.85,10.832,10.832,10.832h19.855c0,25.385,20.651,46.037,46.037,46.037c14.111,0,26.753-6.388,35.204-16.416
		c8.451,10.028,21.093,16.416,35.204,16.416c25.385,0,46.037-20.651,46.037-46.037h176.564c0,25.385,20.651,46.037,46.037,46.037
		c25.385,0,46.037-20.651,46.037-46.037h27.441c5.982,0,10.832-4.85,10.832-10.832S507.149,335.706,501.168,335.706z
		 M439.058,206.804l31.906,59.934h-53.127l-23.801-18.331c-1.895-1.459-4.219-2.25-6.61-2.25h-27.795v-39.353H439.058z
		 M337.966,171.88v122.664H233.534l-12.044-8.788L337.966,171.88z M33.583,156.976h288.638l-28.807,28.164h-94.825
		c-5.983,0-10.832,4.85-10.832,10.832s4.85,10.832,10.832,10.832h72.665l-70.908,69.326H33.583V156.976z M88.643,381.743
		c-13.439,0-24.372-10.933-24.372-24.372c0-13.439,10.933-24.372,24.372-24.372s24.372,10.933,24.372,24.372
		C113.015,370.81,102.082,381.743,88.643,381.743z M159.052,381.743c-13.439,0-24.372-10.933-24.372-24.372
		c0-13.439,10.933-24.372,24.372-24.372c13.439,0,24.372,10.933,24.372,24.372C183.424,370.81,172.491,381.743,159.052,381.743z
		 M199.658,335.706c-7.762-14.49-23.05-24.372-40.606-24.372c-14.111,0-26.753,6.388-35.204,16.416
		c-8.451-10.028-21.093-16.416-35.204-16.416c-17.557,0-32.844,9.882-40.606,24.372H33.583v-37.913h167.649l22.386,16.333
		c1.853,1.353,4.089,2.082,6.384,2.082h107.964v19.498H199.658z M427.689,381.743c-13.438,0-24.372-10.933-24.372-24.372
		c0-13.439,10.934-24.372,24.372-24.372c13.438,0,24.372,10.933,24.372,24.372C452.061,370.81,441.128,381.743,427.689,381.743z
		 M476.251,335.706h-7.954c-7.762-14.49-23.05-24.372-40.606-24.372s-32.844,9.882-40.606,24.372h-27.452v-67.885h24.108
		l23.801,18.331c1.895,1.459,4.219,2.25,6.61,2.25h62.101v47.304H476.251z"/>
	<path style="fill:#231F20;" d="M157.802,185.139h-1.083c-5.983,0-10.832,4.85-10.832,10.832s4.85,10.832,10.832,10.832h1.083
		c5.983,0,10.832-4.85,10.832-10.832S163.784,185.139,157.802,185.139z"/>
</g>
<g>
</g>
<g>
</g>
<g>
</g>
<g>
</g>
<g>
</g>
<g>
</g>
<g>
</g>
<g>
</g>
<g>
</g>
<g>
</g>
<g>
</g>
<g>
</g>
<g>
</g>
<g>
</g>
<g>
</g>
</svg>
