<?xml version="1.0" encoding="iso-8859-1"?>
<!-- Generator: Adobe Illustrator 19.0.0, SVG Export Plug-In . SVG Version: 6.00 Build 0)  -->
<svg version="1.1" id="Layer_1" xmlns="http://www.w3.org/2000/svg" xmlns:xlink="http://www.w3.org/1999/xlink" x="0px" y="0px"
	 viewBox="0 0 512 512" style="enable-background:new 0 0 512 512;" xml:space="preserve">
<path style="fill:#C9E8FA;" d="M477.53,205.571c0,8.357-1.047,16.766-3.1,25.008l-2.964,11.907H40.533l-2.964-11.907
	c-2.053-8.242-3.1-16.651-3.1-25.008c0-56.414,45.774-103.1,104.702-109.812c7.802-53.597,57.158-95.141,116.923-95.748
	c0.44-0.01,0.89-0.01,1.34-0.01c60.509,0,110.64,41.962,118.316,96.146c25.51,3.477,49.042,14.494,67.41,31.741
	C465.32,148.706,477.53,176.29,477.53,205.571z"/>
<polygon style="fill:#67BFFF;" points="370.221,360.288 256.094,512 141.967,360.288 192.978,360.288 192.978,272.646 
	319.2,272.646 319.2,360.288 "/>
<polygon style="fill:#0088FF;" points="319.2,360.288 370.221,360.288 256.094,512 256.094,272.646 319.2,272.646 "/>
<path style="fill:#B6E0F7;" d="M477.53,205.571c0,8.357-1.047,16.766-3.1,25.008l-2.964,11.907H256.094V0.01
	c0.44-0.01,0.89-0.01,1.34-0.01c60.509,0,110.64,41.962,118.316,96.146c25.51,3.477,49.042,14.494,67.41,31.741
	C465.32,148.706,477.53,176.29,477.53,205.571z"/>
<g>
</g>
<g>
</g>
<g>
</g>
<g>
</g>
<g>
</g>
<g>
</g>
<g>
</g>
<g>
</g>
<g>
</g>
<g>
</g>
<g>
</g>
<g>
</g>
<g>
</g>
<g>
</g>
<g>
</g>
</svg>
