<?xml version="1.0" encoding="iso-8859-1"?>
<!-- Generator: Adobe Illustrator 19.0.0, SVG Export Plug-In . SVG Version: 6.00 Build 0)  -->
<svg version="1.1" id="Capa_1" xmlns="http://www.w3.org/2000/svg" xmlns:xlink="http://www.w3.org/1999/xlink" x="0px" y="0px"
	 viewBox="0 0 512.001 512.001" style="enable-background:new 0 0 512.001 512.001;" xml:space="preserve">
<polyline style="fill:#FFCA6F;" points="256,501.997 256,501.997 83.561,437.2 83.561,157.369 256,157.369 "/>
<polygon style="fill:#DFAC8E;" points="256,223.829 207.798,303.383 40.3,236.824 83.561,157.369 "/>
<g>
	<polyline style="fill:#EDA558;" points="256,332.57 256,501.997 256,501.997 428.44,437.2 428.44,157.369 256,157.369 	"/>
</g>
<path d="M256,306.138c-0.65,0-1.31-0.07-1.95-0.2c-0.64-0.13-1.27-0.32-1.87-0.57c-0.61-0.25-1.19-0.559-1.73-0.92
	c-0.55-0.36-1.06-0.78-1.52-1.24c-0.46-0.46-0.88-0.98-1.24-1.52c-0.36-0.54-0.67-1.13-0.92-1.73c-0.25-0.6-0.45-1.23-0.57-1.87
	c-0.13-0.64-0.2-1.3-0.2-1.95c0-0.66,0.07-1.31,0.2-1.96c0.12-0.64,0.32-1.26,0.57-1.87c0.25-0.6,0.56-1.18,0.92-1.72
	c0.36-0.55,0.78-1.06,1.24-1.53c0.46-0.461,0.97-0.87,1.52-1.24c0.54-0.36,1.12-0.67,1.73-0.92c0.6-0.25,1.23-0.44,1.87-0.57
	c1.29-0.26,2.61-0.26,3.9,0c0.64,0.13,1.27,0.32,1.87,0.57c0.61,0.25,1.19,0.56,1.73,0.92c0.55,0.37,1.06,0.78,1.52,1.24
	c0.46,0.47,0.88,0.98,1.24,1.53c0.36,0.54,0.67,1.12,0.92,1.72c0.25,0.61,0.45,1.23,0.57,1.87c0.13,0.65,0.2,1.3,0.2,1.96
	c0,0.65-0.07,1.31-0.2,1.95c-0.12,0.64-0.32,1.27-0.57,1.87c-0.25,0.6-0.56,1.19-0.92,1.73c-0.36,0.54-0.78,1.06-1.24,1.52
	s-0.97,0.88-1.52,1.24c-0.54,0.36-1.12,0.67-1.73,0.92c-0.6,0.25-1.23,0.441-1.87,0.57C257.311,306.068,256.65,306.138,256,306.138z
	"/>
<polygon style="fill:#CF947C;" points="256,223.829 304.203,303.383 471.702,236.824 428.44,157.369 "/>
<polyline style="fill:#FFE0AD;" points="223.205,110.622 83.562,157.369 256,223.829 428.439,157.369 288.796,110.622 "/>
<polygon style="fill:#2FA8D5;" points="256,10 195.766,108.08 223.205,108.08 223.205,176.139 288.796,176.139 288.796,108.08 
	316.236,108.08 "/>
<path d="M480.485,232.043c0,0-43.64-80.092-43.672-80.141c0,0-1.98-3.236-5.199-4.016l-106.311-35.588
	c1.408-3.026,1.219-6.578-0.545-9.451l-60.236-98.08C262.703,1.805,259.476,0,256,0c-3.476,0-6.702,1.805-8.521,4.767l-60.236,98.08
	c-1.764,2.873-1.954,6.425-0.545,9.451L80.388,147.886c-0.66,0.221-3.104,1.082-5.193,4.006c-0.004,0.005-43.679,80.15-43.679,80.15
	c-1.368,2.513-1.594,5.492-0.621,8.182c0.973,2.691,3.052,4.836,5.711,5.893l36.956,14.685V437.2c0,4.166,2.582,7.896,6.482,9.361
	l172.439,64.797c0.001,0,0.002,0.001,0.003,0.001c0.069,0.026,0.138,0.051,0.208,0.076c0.015,0.005,0.03,0.01,0.045,0.016
	c0.049,0.017,0.097,0.033,0.146,0.049c0.035,0.012,0.071,0.023,0.107,0.034c0.025,0.008,0.05,0.016,0.076,0.024
	c0.048,0.015,0.095,0.029,0.143,0.043c0.007,0.002,0.014,0.004,0.021,0.006c0.919,0.266,1.85,0.394,2.768,0.394
	c1.217,0,2.413-0.224,3.531-0.647l172.427-64.792c3.9-1.465,6.482-5.195,6.482-9.361V260.802l36.956-14.685
	c2.659-1.057,4.738-3.202,5.711-5.893C482.079,237.534,481.853,234.555,480.485,232.043z M256,213.112l-142.914-55.081
	l100.118-33.516v51.624c0,5.523,4.477,10,10,10h65.592c5.523,0,10-4.477,10-10v-51.624l100.118,33.516L256,213.112z M256,29.108
	l42.359,68.972h-9.563c-5.523,0-10,4.477-10,10v58.059h-45.592v-48.059h12.93c5.523,0,10-4.477,10-10s-4.477-10-10-10h-32.493
	L256,29.108z M88.15,169.854l153.107,59.009l-37.629,62.103l-149.152-59.27L88.15,169.854z M418.44,430.276L266,487.557V332.57
	c0-5.523-4.477-10-10-10c-5.523,0-10,4.477-10,10v154.987L93.561,430.275V268.749l110.543,43.927
	c1.206,0.479,2.456,0.708,3.689,0.708c3.412,0,6.698-1.752,8.556-4.819l39.65-65.44l39.65,65.44
	c1.859,3.067,5.144,4.819,8.556,4.819c1.234,0,2.484-0.229,3.689-0.708l110.543-43.927v161.526H418.44z M308.373,290.966
	l-37.629-62.103l153.107-59.009l33.673,61.843L308.373,290.966z"/>
<g>
</g>
<g>
</g>
<g>
</g>
<g>
</g>
<g>
</g>
<g>
</g>
<g>
</g>
<g>
</g>
<g>
</g>
<g>
</g>
<g>
</g>
<g>
</g>
<g>
</g>
<g>
</g>
<g>
</g>
</svg>
