<?xml version="1.0" encoding="iso-8859-1"?>
<!-- Generator: Adobe Illustrator 19.0.0, SVG Export Plug-In . SVG Version: 6.00 Build 0)  -->
<svg version="1.1" id="Capa_1" xmlns="http://www.w3.org/2000/svg" xmlns:xlink="http://www.w3.org/1999/xlink" x="0px" y="0px"
	 viewBox="0 0 512 512" style="enable-background:new 0 0 512 512;" xml:space="preserve">
<path style="fill:#318DB6;" d="M383.542,265.06v-86.708h36.042c-14.519-21.029-25.69-36.398-25.69-36.398
	c-4.118-5.04-10.272-7.955-16.773-7.955h-37.693v224.601H502v-93.54H383.542z"/>
<polyline style="fill:#FFCA6F;" points="10,167.172 10,358.599 301.399,358.599 301.399,167.172 "/>
<g>
	<polyline style="fill:#CF947C;" points="301.399,167.172 301.399,124.077 10,124.077 10,167.172 101,167.172 	"/>
</g>
<rect x="10" y="59.901" style="fill:#9A6E5E;" width="291.4" height="64.18"/>
<rect x="102.43" y="59.901" style="fill:#DFAC8E;" width="106.54" height="64.18"/>
<polygon style="fill:#FFE0AD;" points="102.431,124.077 102.431,246.257 129.08,227.768 155.699,246.228 182.319,227.768 
	208.967,246.257 208.967,124.077 "/>
<path d="M266.64,177.17c-0.65,0-1.31-0.06-1.95-0.19s-1.27-0.32-1.87-0.57c-0.61-0.25-1.19-0.56-1.73-0.92
	c-0.55-0.37-1.06-0.79-1.52-1.25s-0.88-0.97-1.24-1.52c-0.36-0.54-0.67-1.12-0.92-1.72c-0.25-0.61-0.44-1.24-0.57-1.87
	c-0.13-0.65-0.2-1.31-0.2-1.96c0-2.63,1.07-5.21,2.93-7.07c0.46-0.46,0.97-0.88,1.52-1.24c0.54-0.36,1.12-0.67,1.73-0.92
	c0.6-0.25,1.23-0.44,1.87-0.57c1.29-0.26,2.62-0.26,3.9,0c0.64,0.13,1.27,0.32,1.88,0.57c0.6,0.25,1.18,0.56,1.72,0.92
	c0.55,0.36,1.06,0.78,1.52,1.24s0.88,0.97,1.25,1.52c0.35,0.54,0.66,1.12,0.91,1.73c0.25,0.6,0.45,1.23,0.57,1.87
	c0.13,0.64,0.2,1.3,0.2,1.95s-0.07,1.31-0.2,1.96c-0.12,0.63-0.32,1.26-0.57,1.87c-0.25,0.6-0.55,1.18-0.91,1.72
	c-0.37,0.55-0.79,1.06-1.25,1.52s-0.97,0.88-1.52,1.25c-0.54,0.36-1.12,0.67-1.72,0.92c-0.61,0.25-1.24,0.44-1.88,0.57
	C267.95,177.11,267.29,177.17,266.64,177.17z"/>
<path style="fill:#FFE0AD;" d="M502,265.06H383.542v-86.708h39.289c10.605,0,20.564,5.084,26.782,13.677
	C470.258,220.558,493.769,253.17,502,265.06z"/>
<g>
	<path style="fill:#DFAC8E;" d="M159.725,405.188h201.063c0.087-25.594,20.854-46.589,46.735-46.589H112.99
		C138.885,358.599,159.638,379.601,159.725,405.188z"/>
	<polyline style="fill:#DFAC8E;" points="454.257,405.188 502,405.188 502,358.599 407.523,358.599 	"/>
	<polyline style="fill:#DFAC8E;" points="112.99,358.599 10,358.599 10,405.188 66.256,405.188 	"/>
</g>
<g>
	<path style="fill:#9A6E5E;" d="M454.258,405.349c0,25.815-20.928,46.75-46.735,46.75c-25.807,0-46.736-20.935-46.736-46.75
		c0-25.667,20.8-46.75,46.736-46.75C433.472,358.599,454.258,379.69,454.258,405.349z"/>
	<path style="fill:#9A6E5E;" d="M159.726,405.349c0,25.815-20.928,46.75-46.736,46.75s-46.735-20.935-46.735-46.75
		c0-25.667,20.8-46.75,46.735-46.75C138.94,358.599,159.726,379.69,159.726,405.349z"/>
</g>
<path d="M512,265.028c0-0.065-0.001-0.13-0.003-0.194c0-0.014,0-0.029-0.001-0.043c-0.002-0.068-0.004-0.135-0.008-0.203
	c-0.002-0.035-0.004-0.069-0.005-0.104c-0.002-0.033-0.004-0.066-0.006-0.098c-0.127-1.9-0.783-3.656-1.825-5.118
	c-8.559-12.356-33.224-46.551-52.438-73.1c-7.675-10.606-19.842-17.148-32.857-17.766c-12.98-18.703-22.769-32.182-22.874-32.326
	c-0.111-0.152-0.226-0.302-0.345-0.448C395.6,128.238,386.664,124,377.121,124h-37.693c-5.523,0-10,4.477-10,10v214.601h-18.029
	v-288.7c0-5.523-4.477-10-10-10H10c-5.523,0-10,4.477-10,10v345.287c0,5.523,4.477,10,10,10h47.108
	c4.671,26.619,27.952,46.912,55.882,46.912s51.211-20.292,55.882-46.912h182.769c4.671,26.619,27.951,46.912,55.882,46.912
	s51.211-20.292,55.882-46.912H502c5.523,0,10-4.477,10-10V265.06C512,265.049,512,265.039,512,265.028z M441.512,197.892
	c13.553,18.729,29.82,41.262,41.174,57.168h-89.145v-66.708h29.29C430.206,188.352,437.189,191.919,441.512,197.892z
	 M349.428,143.999h27.693c3.433,0,6.653,1.489,8.873,4.095c1.074,1.482,6.619,9.151,14.431,20.258h-16.884c-5.523,0-10,4.477-10,10
	v86.708c0,5.523,4.477,10,10,10H492v73.539H349.428V143.999z M351.699,395.188H168.815c-1.818-10.021-6.276-19.133-12.625-26.588
	h208.133C357.975,376.053,353.517,385.167,351.699,395.188z M20,348.599V177.171h72.432v69.086c0,3.721,2.066,7.135,5.364,8.86
	c1.457,0.763,3.049,1.14,4.635,1.14c2.002,0,3.996-0.601,5.702-1.784l20.949-14.535L150,254.445c3.428,2.377,7.97,2.377,11.397,0
	l20.919-14.507l20.95,14.536c3.057,2.12,7.04,2.37,10.337,0.644c3.297-1.726,5.363-5.139,5.363-8.86v-69.086h9.332
	c5.523,0,10-4.477,10-10s-4.477-10-10-10h-9.332v-23.095h72.432v214.522H20z M112.432,134.077h86.536v93.071l-10.948-7.597
	c-3.429-2.378-7.973-2.379-11.399-0.001l-20.92,14.508l-20.92-14.508c-1.714-1.189-3.706-1.783-5.699-1.783
	c-1.993,0-3.987,0.595-5.701,1.784l-10.948,7.596L112.432,134.077L112.432,134.077z M92.432,157.171H20v-23.095h72.432V157.171z
	 M291.399,114.077h-72.432V69.901h72.432V114.077z M198.967,69.901v44.176h-86.536V69.901H198.967z M20,69.901h72.432v44.176H20
	V69.901z M20,368.599h49.791c-6.348,7.455-10.806,16.568-12.625,26.588H20V368.599z M112.991,442.099
	c-20.256,0-36.736-16.486-36.736-36.75s16.479-36.75,36.736-36.75c20.256,0,36.735,16.486,36.735,36.75
	S133.247,442.099,112.991,442.099z M407.523,442.099c-20.256,0-36.735-16.486-36.735-36.75s16.479-36.75,36.735-36.75
	c20.256,0,36.735,16.486,36.735,36.75S427.779,442.099,407.523,442.099z M492,395.188h-28.653
	c-1.818-10.021-6.276-19.133-12.625-26.588H492V395.188z"/>
<g>
</g>
<g>
</g>
<g>
</g>
<g>
</g>
<g>
</g>
<g>
</g>
<g>
</g>
<g>
</g>
<g>
</g>
<g>
</g>
<g>
</g>
<g>
</g>
<g>
</g>
<g>
</g>
<g>
</g>
</svg>
