<svg xmlns="http://www.w3.org/2000/svg" xmlns:xlink="http://www.w3.org/1999/xlink" version="1.1" id="Layer_1" x="0px" y="0px" viewBox="0 0 512 512" style="enable-background:new 0 0 512 512;" xml:space="preserve" width="512" height="512" class=""><g><path style="fill:#607D8B;" d="M511.481,239.899C503.17,106.017,391.975,0,256,0C114.615,0,0,114.616,0,256  c0,117.217,78.782,216.029,186.283,246.388L511.481,239.899z" data-original="#607D8B" class=""></path><path style="fill:#263238;" d="M512,256c0-5.409-0.188-10.774-0.519-16.101L369.53,97.948L97.948,414.052l88.336,88.336  C208.449,508.646,231.832,512,256,512C397.385,512,512,397.384,512,256z" data-original="#263238" class=""></path><polygon style="fill:#00C6FF" points="414.052,142.47 414.052,414.052 380.661,414.052 211.478,369.53 211.478,142.47   347.27,97.948 369.53,97.948 " data-original="#E91E63" class="" data-old_color="#0082FF"></polygon><polygon style="fill:#00EDFF" points="256,142.47 256,369.53 131.339,414.052 97.948,414.052 97.948,97.948 164.73,97.948 " data-original="#FF8A65" class="" data-old_color="#00F4FF"></polygon><polygon style="fill:#00FFAD" points="380.661,233.739 380.661,267.13 207.318,323.896 256,233.739 " data-original="#F48FB1" class="" data-old_color="#00FFC4"></polygon><polygon style="fill:#65FF00" points="256,233.739 256,336.139 131.339,267.13 131.339,233.739 " data-original="#FFCCBC" class="active-path" data-old_color="#6DFF00"></polygon><polygon style="fill:#E0F7FA;" points="380.661,267.13 380.661,414.052 256,414.052 207.318,340.591 256,267.13 " data-original="#E0F7FA" class=""></polygon><rect x="131.339" y="267.13" style="fill:#FFFFFF;" width="124.661" height="146.922" data-original="#FFFFFF" class=""></rect><polygon style="fill:#B0BEC5;" points="347.27,97.948 347.27,200.348 256,200.348 223.279,149.148 256,97.948 " data-original="#B0BEC5" class=""></polygon><rect x="164.73" y="97.948" style="fill:#CFD8DC" width="91.27" height="102.4" data-original="#CFD8DC" class=""></rect><rect x="278.261" y="120.209" style="fill:#263238;" width="46.748" height="57.878" data-original="#263238" class=""></rect><polygon style="fill:#B0BEC5;" points="358.4,307.2 358.4,329.461 256,329.461 230.076,318.33 256,307.2 " data-original="#B0BEC5" class=""></polygon><rect x="153.6" y="307.2" style="fill:#CFD8DC" width="102.4" height="22.261" data-original="#CFD8DC" class=""></rect><polygon style="fill:#B0BEC5;" points="358.4,351.722 358.4,373.983 256,373.983 230.076,362.852 256,351.722 " data-original="#B0BEC5" class=""></polygon><rect x="153.6" y="351.722" style="fill:#CFD8DC" width="102.4" height="22.261" data-original="#CFD8DC" class=""></rect></g> </svg>