<?xml version="1.0" encoding="iso-8859-1"?>
<!-- Generator: Adobe Illustrator 19.0.0, SVG Export Plug-In . SVG Version: 6.00 Build 0)  -->
<svg version="1.1" id="Capa_1" xmlns="http://www.w3.org/2000/svg" xmlns:xlink="http://www.w3.org/1999/xlink" x="0px" y="0px"
	 viewBox="0 0 382.632 382.632" style="enable-background:new 0 0 382.632 382.632;" xml:space="preserve">
<polygon style="fill:#CCE4FF;" points="319.316,16 63.316,16 63.316,80 159.316,80 159.316,248 223.316,248 223.316,80 319.316,80 
	"/>
<g>
	<path style="fill:#007AFF;" d="M47.316,64v32v32h32V96h64v168h96V96h64v32h32V96V64V0h-288V64z M303.316,32v32h-96v168h-32V64h-96
		V32H303.316z"/>
	<polygon style="fill:#007AFF;" points="288.692,264 320.692,296 61.94,296 93.94,264 71.316,241.368 0.692,312 71.316,382.632 
		93.94,360 61.94,328 320.692,328 288.692,360 311.316,382.632 381.94,312 311.316,241.368 	"/>
</g>
<g>
</g>
<g>
</g>
<g>
</g>
<g>
</g>
<g>
</g>
<g>
</g>
<g>
</g>
<g>
</g>
<g>
</g>
<g>
</g>
<g>
</g>
<g>
</g>
<g>
</g>
<g>
</g>
<g>
</g>
</svg>
