<?xml version="1.0" encoding="utf-8"?>
<!-- Generator: Adobe Illustrator 26.5.0, SVG Export Plug-In . SVG Version: 6.00 Build 0)  -->
<svg version="1.1" id="图层_1" xmlns="http://www.w3.org/2000/svg" xmlns:xlink="http://www.w3.org/1999/xlink" x="0px" y="0px"
	 viewBox="0 0 24 24" style="enable-background:new 0 0 24 24;" xml:space="preserve">
<style type="text/css">
	.st0{fill:#00B050;}
	.st1{fill:#FFFFFF;}
	.st2{fill:#DB2E05;}
</style>
<g id="_x23_00b050ff">
	<path class="st0" d="M5.3,0.2c1.7-0.4,3.6-0.1,5,0.9c1.7,1.1,2.7,3.2,2.6,5.2c0,3.1-2.7,5.8-5.8,5.8c-2.2,0.1-4.4-1.1-5.5-3
		C0.5,7.3,0.4,5,1.4,3.2C2.2,1.7,3.6,0.6,5.3,0.2 M9.5,3.9c-1.2,1.3-2.2,2.7-3.4,4C5.4,7.2,4.8,6.5,4,5.9C3.6,6.1,3.3,6.5,3.6,6.8
		c0.7,0.8,1.5,1.5,2.2,2.2c0.4,0.3,0.7-0.1,0.9-0.4C8,7.2,9.2,5.9,10.3,4.4C10.6,3.9,9.8,3.5,9.5,3.9z"/>
</g>
<g id="_x23_ffffffff">
	<path class="st1" d="M9.5,3.9c0.3-0.4,1.1,0,0.8,0.5C9.2,5.9,8,7.2,6.8,8.7C6.6,8.9,6.2,9.4,5.9,9.1C5.1,8.4,4.3,7.6,3.6,6.8
		C3.3,6.5,3.6,6.1,4,5.9c0.8,0.5,1.4,1.3,2.1,2C7.3,6.6,8.3,5.2,9.5,3.9z"/>
	<path class="st1" d="M14.5,15.1c0.5,0,1.1,0,1.6,0c0.4,0.6,0.8,1.3,1.2,1.9c0.4-0.6,0.8-1.3,1.2-1.9c0.5,0,1.1,0,1.6,0
		c-0.6,1-1.3,1.9-1.9,2.9c0.6,1,1.4,1.9,1.9,2.9c-0.5,0-1,0-1.5,0c-0.5-0.6-0.9-1.3-1.3-2c-0.4,0.7-0.8,1.3-1.2,2c-0.5,0-1,0-1.6,0
		c0.5-1,1.3-1.9,1.8-2.9C15.7,17,15.1,16,14.5,15.1z"/>
</g>
<g id="_x23_db2e05ff">
	<path class="st2" d="M16,12.1c3.1-0.7,6.4,1.4,7.1,4.5c0.9,3.2-1.3,6.7-4.6,7.3c-3.1,0.8-6.5-1.4-7.1-4.5
		C10.5,16.2,12.8,12.7,16,12.1 M14.5,15.1c0.6,1,1.3,1.9,1.8,2.9c-0.6,1-1.4,1.9-1.8,2.9c0.5,0,1,0,1.6,0c0.5-0.6,0.9-1.3,1.2-2
		c0.4,0.7,0.8,1.3,1.3,2c0.5,0,1,0,1.5,0c-0.5-1.1-1.3-2-1.9-2.9c0.6-1,1.3-1.9,1.9-2.9c-0.5,0-1.1,0-1.6,0
		c-0.4,0.6-0.8,1.3-1.2,1.9c-0.4-0.6-0.8-1.3-1.2-1.9C15.5,15.1,15,15.1,14.5,15.1z"/>
</g>
</svg>
