<?xml version="1.0" encoding="utf-8"?>
<!-- Generator: Adobe Illustrator 26.5.0, SVG Export Plug-In . SVG Version: 6.00 Build 0)  -->
<svg version="1.1" id="图层_1" xmlns="http://www.w3.org/2000/svg" xmlns:xlink="http://www.w3.org/1999/xlink" x="0px" y="0px"
	 viewBox="0 0 24 24" style="enable-background:new 0 0 24 24;" xml:space="preserve">
<style type="text/css">
	.st0{fill:#00B050;}
	.st1{fill:#FFFFFF;}
</style>
<g id="_x23_00b050ff">
	<path class="st0" d="M9.6,0.3c2.4-0.4,4.9-0.2,7.1,0.7c3.5,1.5,6.3,4.7,7,8.5c0.5,2.6,0.2,5.4-1,7.8c-2,3.9-6.2,6.6-10.6,6.5
		c-3.2,0.1-6.4-1.2-8.6-3.5c-2.4-2.3-3.7-5.6-3.5-8.9C0.1,6.1,4.4,1.3,9.6,0.3 M16.7,8.6c-2,2.3-4,4.7-5.9,7
		c-1.2-1.2-2.4-2.5-3.7-3.6c-0.8-0.6-1.9,0.6-1.4,1.4c1.4,1.5,2.8,2.8,4.2,4.2c0.4,0.6,1.4,0.5,1.8-0.1c2.4-2.9,4.9-5.7,7.3-8.6
		c0.6-0.7-0.2-1.8-1-1.6C17.3,7.7,17.1,8.2,16.7,8.6z"/>
</g>
<g id="_x23_ffffffff">
	<path class="st1" d="M16.7,8.6c0.4-0.4,0.7-1,1.2-1.2c0.8-0.2,1.6,0.9,1,1.6c-2.4,2.9-4.9,5.7-7.3,8.6c-0.4,0.6-1.3,0.6-1.8,0.1
		c-1.4-1.4-2.9-2.8-4.2-4.2c-0.6-0.8,0.5-2,1.4-1.4c1.3,1.1,2.4,2.4,3.7,3.6C12.7,13.3,14.7,11,16.7,8.6z"/>
</g>
</svg>
